<?xml version="1.0" encoding="utf-8"?>
<svg version="1.1" xmlns:xlink="http://www.w3.org/1999/xlink" width="25px" height="45px" xmlns="http://www.w3.org/2000/svg">
  <g transform="matrix(1 0 0 1 -2891 -1010 )">
    <path d="M 18.4027777777778 0  C 21.2384259259259 0  23.4375 0.108173076923077  25 0.32451923076923  L 25 7.46394230769231  L 20.4571759259259 7.46394230769231  C 18.798225308642 7.46394230769231  17.6793981481481 7.78846153846154  17.1006944444444 8.4375  C 16.5219907407407 9.08653846153846  16.2326388888889 10.0600961538462  16.2326388888889 11.3581730769231  L 16.2326388888889 16.4693509615385  L 24.7106481481481 16.4693509615385  L 23.5821759259259 24.4741586538462  L 16 24.4741586538462  L 16 45  L 7.37847222222222 45  L 7.37847222222222 24.4741586538462  L 0 24.4741586538462  L 0 16.4693509615385  L 7.37847222222222 16.4693509615385  L 7.37847222222222 10.5739182692308  C 7.37847222222222 7.22055288461538  8.38155864197531 4.61989182692307  10.3877314814815 2.77193509615385  C 12.3939043209877 0.923978365384619  15.0655864197531 0  18.4027777777778 0  Z " fill-rule="nonzero" fill="#000000" stroke="none" transform="matrix(1 0 0 1 2891 1010 )" />
  </g>
</svg>