<?xml version="1.0" encoding="utf-8"?>
<svg version="1.1" xmlns:xlink="http://www.w3.org/1999/xlink" width="30px" height="25px" xmlns="http://www.w3.org/2000/svg">
  <g transform="matrix(1 0 0 1 -2931 -1025 )">
    <path d="M 26.4593908629442 3.9453125  C 27.6395939086294 3.81510416666667  28.8197969543147 3.48958333333333  30 2.96875  C 29.1497461928934 4.24479166666666  28.1218274111675 5.33203125  26.9162436548223 6.23046875  C 26.9289340101523 6.41276041666667  26.9352791878173 6.68619791666666  26.9352791878173 7.05078125  C 26.9352791878173 8.74348958333333  26.6941624365482 10.4329427083333  26.2119289340102 12.119140625  C 25.7296954314721 13.8053385416667  24.9968274111675 15.4231770833333  24.0133248730964 16.97265625  C 23.0298223350254 18.5221354166667  21.8591370558376 19.892578125  20.501269035533 21.083984375  C 19.1434010152284 22.275390625  17.506345177665 23.2259114583333  15.5901015228426 23.935546875  C 13.6738578680203 24.6451822916667  11.6243654822335 25  9.44162436548223 25  C 6.00253807106599 25  2.85532994923858 24.0559895833333  0 22.16796875  C 0.444162436548224 22.2200520833333  0.939086294416244 22.24609375  1.48477157360406 22.24609375  C 4.34010152284264 22.24609375  6.88451776649746 21.34765625  9.11802030456853 19.55078125  C 7.78553299492386 19.5247395833333  6.59263959390863 19.1048177083333  5.53934010152284 18.291015625  C 4.48604060913706 17.4772135416667  3.76269035532995 16.4388020833333  3.36928934010152 15.17578125  C 3.78807106598985 15.2408854166667  4.1751269035533 15.2734375  4.53045685279188 15.2734375  C 5.0761421319797 15.2734375  5.61548223350254 15.2018229166667  6.14847715736041 15.05859375  C 4.72715736040609 14.7591145833333  3.5501269035533 14.033203125  2.61738578680203 12.880859375  C 1.68464467005076 11.728515625  1.21827411167513 10.390625  1.21827411167513 8.8671875  L 1.21827411167513 8.7890625  C 2.08121827411168 9.28385416666667  3.00761421319797 9.55078125  3.99746192893401 9.58984375  C 3.15989847715736 9.01692708333333  2.49365482233503 8.26822916666667  1.99873096446701 7.34375  C 1.50380710659898 6.41927083333333  1.25634517766497 5.41666666666666  1.25634517766497 4.3359375  C 1.25634517766497 3.19010416666667  1.53553299492386 2.12890625  2.09390862944162 1.15234375  C 3.62944162436548 3.09244791666667  5.49809644670051 4.64518229166667  7.6998730964467 5.810546875  C 9.90164974619289 6.97591145833333  12.258883248731 7.62369791666667  14.7715736040609 7.75390625  C 14.6700507614213 7.25911458333333  14.6192893401015 6.77734375  14.6192893401015 6.30859375  C 14.6192893401015 4.56380208333333  15.2189086294416 3.076171875  16.4181472081218 1.845703125  C 17.617385786802 0.615234375000001  19.0672588832487 0  20.7677664974619 0  C 22.5444162436548 0  24.0418781725888 0.664062500000001  25.260152284264 1.9921875  C 26.6434010152284 1.71875  27.9441624365482 1.2109375  29.1624365482234 0.468750000000001  C 28.6928934010152 1.96614583333333  27.7918781725888 3.125  26.4593908629442 3.9453125  Z " fill-rule="nonzero" fill="#000000" stroke="none" transform="matrix(1 0 0 1 2931 1025 )" />
  </g>
</svg>