<?xml version="1.0" encoding="utf-8"?>
<svg version="1.1" xmlns:xlink="http://www.w3.org/1999/xlink" width="30px" height="29px" xmlns="http://www.w3.org/2000/svg">
  <g transform="matrix(1 0 0 1 -2836 -1021 )">
    <path d="M 0.37109375 9.42302452316076  L 7 9.42302452316076  L 7 29  L 0.37109375 29  L 0.37109375 9.42302452316076  Z M 6.23046875 0.958106267029973  C 6.88151041666667 1.59684377838329  7.21354166666667 2.40349682107175  7.2265625 3.37806539509537  C 7.23958333333333 4.33946412352407  6.91080729166667 5.1428247048138  6.240234375 5.78814713896458  C 5.56966145833333 6.43346957311535  4.6875 6.75613079019074  3.59375 6.75613079019074  L 3.5546875 6.75613079019074  C 2.48697916666667 6.75613079019074  1.62760416666667 6.43346957311535  0.9765625 5.78814713896458  C 0.325520833333333 5.1428247048138  0 4.33946412352407  0 3.37806539509537  C 0 2.40349682107175  0.335286458333333 1.59684377838329  1.005859375 0.958106267029973  C 1.67643229166667 0.319368755676655  2.55208333333333 0  3.6328125 0  C 4.71354166666667 0  5.57942708333333 0.319368755676655  6.23046875 0.958106267029973  Z M 27.96875 11.2108310626703  C 29.3229166666667 12.705608537693  30 14.8950953678474  30 17.7792915531335  L 30 29  L 23 29  L 23 18.5299727520436  C 23.57421875 17.1471389645777  23.310546875 16.063919164396  22.783203125 15.2803133514986  C 22.255859375 14.4967075386013  21.4322916666667 14.1049046321526  20.3125 14.1049046321526  C 19.4921875 14.1049046321526  18.8053385416667 14.3320844686648  18.251953125 14.7864441416894  C 17.6985677083333 15.2408038147139  17.28515625 15.8038147138965  17.01171875 16.4754768392371  C 16.8684895833333 16.8705722070845  16.796875 17.4039509536785  16.796875 18.0756130790191  L 16.796875 29  L 10.37109375 29  C 10.3971354166667 23.7452316076294  10.41015625 19.4847865576748  10.41015625 16.2186648501362  C 10.41015625 12.9525431425976  10.4036458333333 11.0034059945504  10.390625 10.3712534059945  L 10.37109375 9.42302452316076  L 16.796875 9.42302452316076  L 16.796875 12.2677111716621  L 16.7578125 12.2677111716621  C 17.0182291666667 11.8462761126249  17.28515625 11.4775204359673  17.55859375 11.1614441416894  C 17.83203125 10.8453678474114  18.1998697916667 10.5029518619437  18.662109375 10.1341961852861  C 19.1243489583333 9.76544050862852  19.6907552083333 9.47899636693914  20.361328125 9.27486376021798  C 21.0319010416667 9.07073115349682  21.77734375 8.96866485013624  22.59765625 8.96866485013624  C 24.82421875 8.96866485013624  26.6145833333333 9.71605358764759  27.96875 11.2108310626703  Z " fill-rule="nonzero" fill="#000000" stroke="none" transform="matrix(1 0 0 1 2836 1021 )" />
  </g>
</svg>