<?xml version="1.0" encoding="utf-8"?>
<svg version="1.1" xmlns:xlink="http://www.w3.org/1999/xlink" width="30px" height="29px" xmlns="http://www.w3.org/2000/svg">
  <g transform="matrix(1 0 0 1 -2782 -1025 )">
    <path d="M 7.470703125 1.99266177451634  C 9.76888020833333 0.664220591505447  12.2786458333333 0  15 0  C 17.7213541666667 0  20.2311197916667 0.664220591505447  22.529296875 1.99266177451634  C 24.8274739583333 3.32110295752724  26.6471354166667 5.12352679564154  27.98828125 7.39993328885924  C 29.3294270833333 9.67633978207694  30 12.1623304425172  30 14.8579052701801  C 30 18.0951745608183  29.0462239583333 21.0067822993107  27.138671875 23.5927284856571  C 25.2311197916667 26.1786746720036  22.7669270833333 27.9682010229042  19.74609375 28.9613075383589  C 19.39453125 29.0257949744274  19.1341145833333 28.9806537691795  18.96484375 28.8258839226151  C 18.7955729166667 28.6711140760507  18.7109375 28.4776517678452  18.7109375 28.2454969979987  C 18.7109375 28.2068045363576  18.7141927083333 27.7134756504336  18.720703125 26.7655103402268  C 18.7272135416667 25.81754503002  18.73046875 24.9501890148988  18.73046875 24.1634422948632  C 18.73046875 22.9123860351345  18.3919270833333 21.996664442962  17.71484375 21.4162775183456  C 18.45703125 21.3388925950634  19.1243489583333 21.2228152101401  19.716796875 21.0680453635757  C 20.3092447916667 20.9132755170113  20.9212239583333 20.6617745163442  21.552734375 20.3135423615744  C 22.1842447916667 19.9653102068045  22.7115885416667 19.5364687569491  23.134765625 19.027018012008  C 23.5579427083333 18.5175672670669  23.9029947916667 17.8404491883478  24.169921875 16.9956637758506  C 24.4368489583333 16.1508783633533  24.5703125 15.1803424505226  24.5703125 14.0840560373582  C 24.5703125 12.5492550589282  24.0559895833333 11.2208138759173  23.02734375 10.0987324883256  C 23.5091145833333 8.92506115187903  23.45703125 7.60951745608183  22.87109375 6.15210140093396  C 22.5065104166667 6.03602401601067  21.9791666666667 6.10696019568601  21.2890625 6.36490993995997  C 20.5989583333333 6.62285968423393  20 6.90660440293529  19.4921875 7.21614409606404  L 18.75 7.68045363575717  C 17.5390625 7.34511896820102  16.2890625 7.17745163442295  15 7.17745163442295  C 13.7109375 7.17745163442295  12.4609375 7.34511896820102  11.25 7.68045363575717  C 11.0416666666667 7.53858127640649  10.7649739583333 7.36446519902157  10.419921875 7.1581054036024  C 10.0748697916667 6.95174560818323  9.53125 6.70346897931955  8.7890625 6.41327551701134  C 8.046875 6.12308205470314  7.49348958333333 6.03602401601067  7.12890625 6.15210140093396  C 6.54296875 7.60951745608183  6.49088541666667 8.92506115187903  6.97265625 10.0987324883256  C 5.94401041666667 11.2208138759173  5.4296875 12.5492550589282  5.4296875 14.0840560373582  C 5.4296875 15.1803424505226  5.56315104166667 16.1476539915499  5.830078125 16.9859906604403  C 6.09700520833333 17.8243273293307  6.43880208333333 18.5014454080498  6.85546875 19.0173448965977  C 7.27213541666667 19.5332443851457  7.79622395833333 19.9653102068045  8.427734375 20.3135423615744  C 9.05924479166667 20.6617745163442  9.67122395833333 20.9132755170113  10.263671875 21.0680453635757  C 10.8561197916667 21.2228152101401  11.5234375 21.3388925950634  12.265625 21.4162775183456  C 11.7578125 21.8805870580387  11.4388020833333 22.5448076495441  11.30859375 23.4089392928619  C 11.03515625 23.5379141649989  10.7421875 23.6346453191016  10.4296875 23.6991327551701  C 10.1171875 23.7636201912386  9.74609375 23.7958639092728  9.31640625 23.7958639092728  C 8.88671875 23.7958639092728  8.46028645833334 23.6572159217256  8.037109375 23.3799199466311  C 7.61393229166667 23.1026239715366  7.25260416666667 22.6995774961085  6.953125 22.1707805203469  C 6.70572916666667 21.7580609295086  6.38997395833333 21.4227262619524  6.005859375 21.1647765176785  C 5.62174479166667 20.9068267734045  5.29947916666667 20.7520569268401  5.0390625 20.7004669779853  L 4.6484375 20.6424282855237  C 4.375 20.6424282855237  4.18619791666667 20.6714476317545  4.08203125 20.7294863242161  C 3.97786458333333 20.7875250166778  3.9453125 20.8616855681565  3.984375 20.9519679786524  C 4.0234375 21.0422503891483  4.08203125 21.1325327996442  4.16015625 21.2228152101401  C 4.23828125 21.313097620636  4.32291666666667 21.3904825439182  4.4140625 21.4549699799867  L 4.55078125 21.5517011340894  C 4.83723958333333 21.6806760062264  5.12044270833333 21.9257282632866  5.400390625 22.2868579052702  C 5.68033854166667 22.6479875472537  5.88541666666667 22.976873471203  6.015625 23.2735156771181  L 6.2109375 23.7184789859907  C 6.38020833333333 24.2085835001112  6.66666666666667 24.6051812319324  7.0703125 24.9082721814543  C 7.47395833333333 25.2113631309762  7.91015625 25.4048254391817  8.37890625 25.4886591060707  C 8.84765625 25.5724927729597  9.30013020833334 25.6176339782077  9.736328125 25.6240827218145  C 10.1725260416667 25.6305314654214  10.5338541666667 25.6079608627974  10.8203125 25.5563709139426  L 11.26953125 25.4789859906604  C 11.26953125 25.969090504781  11.2727864583333 26.5398043139871  11.279296875 27.1911274182789  C 11.2858072916667 27.8424505225706  11.2890625 28.1939070491439  11.2890625 28.2454969979987  C 11.2890625 28.4776517678452  11.2044270833333 28.6711140760507  11.03515625 28.8258839226151  C 10.8658854166667 28.9806537691795  10.60546875 29.0257949744274  10.25390625 28.9613075383589  C 7.23307291666667 27.9682010229042  4.76888020833333 26.1786746720036  2.861328125 23.5927284856571  C 0.953776041666667 21.0067822993107  0 18.0951745608183  0 14.8579052701801  C 0 12.1623304425172  0.670572916666667 9.67633978207694  2.01171875 7.39993328885924  C 3.35286458333333 5.12352679564154  5.17252604166667 3.32110295752724  7.470703125 1.99266177451634  Z M 5.4296875 21.3775850567045  C 5.546875 21.4549699799867  5.63151041666667 21.442072492773  5.68359375 21.3388925950634  C 5.72265625 21.2486101845675  5.67708333333333 21.1712252612853  5.546875 21.1067378252168  C 5.41666666666667 21.0680453635757  5.33203125 21.0809428507894  5.29296875 21.1454302868579  C 5.25390625 21.2357126973538  5.29947916666667 21.313097620636  5.4296875 21.3775850567045  Z M 5.9765625 21.9386257505003  C 6.10677083333333 22.0676006226373  6.2109375 22.0869468534579  6.2890625 21.996664442962  C 6.38020833333333 21.9321770068935  6.3671875 21.8289971091839  6.25 21.6871247498332  C 6.11979166666667 21.5710473649099  6.015625 21.5517011340894  5.9375 21.6290860573716  C 5.84635416666667 21.6935734934401  5.859375 21.7967533911497  5.9765625 21.9386257505003  Z M 6.54296875 22.7318212141428  C 6.66015625 22.8994885479208  6.77083333333333 22.9446297531688  6.875 22.8672448298866  C 6.9921875 22.7769624193907  6.9921875 22.6544362908606  6.875 22.4996664442962  C 6.77083333333333 22.3319991105181  6.66015625 22.293306648877  6.54296875 22.3835890593729  C 6.42578125 22.4480764954414  6.42578125 22.5641538803647  6.54296875 22.7318212141428  Z M 7.3046875 23.6217478318879  C 7.4609375 23.7765176784523  7.59114583333333 23.7958639092728  7.6953125 23.6797865243496  C 7.79947916666667 23.57660662664  7.7734375 23.4540804981098  7.6171875 23.3122081387592  C 7.4609375 23.1574382921948  7.33072916666667 23.1380920613742  7.2265625 23.2541694462975  C 7.109375 23.3573493440071  7.13541666666667 23.4798754725372  7.3046875 23.6217478318879  Z M 8.4375 24.2795196797865  C 8.6328125 24.3569046030687  8.75651041666667 24.3182121414276  8.80859375 24.1634422948632  C 8.84765625 24.0215699355126  8.76302083333333 23.918390037803  8.5546875 23.8539026017345  C 8.359375 23.8023126528797  8.23567708333333 23.8474538581276  8.18359375 23.9893262174783  C 8.13151041666667 24.131198576829  8.21614583333333 24.2279297309317  8.4375 24.2795196797865  Z M 9.7265625 24.472981987992  C 9.93489583333333 24.472981987992  10.0390625 24.4020458083167  10.0390625 24.260173448966  C 10.0390625 24.0925061151879  9.92838541666667 24.0215699355126  9.70703125 24.04736490994  C 9.49869791666667 24.04736490994  9.39453125 24.1183010896153  9.39453125 24.260173448966  C 9.39453125 24.4278407827441  9.50520833333333 24.4987769624194  9.7265625 24.472981987992  Z M 10.8984375 24.3375583722482  C 11.1067708333333 24.2859684233934  11.1979166666667 24.1956860128975  11.171875 24.0667111407605  C 11.1458333333333 23.9248387814098  11.0286458333333 23.8668000889482  10.8203125 23.8925950633756  C 10.6119791666667 23.9312875250167  10.5208333333333 24.0280186791194  10.546875 24.1827885256838  C 10.5729166666667 24.3375583722482  10.6901041666667 24.389148321103  10.8984375 24.3375583722482  Z " fill-rule="nonzero" fill="#000000" stroke="none" transform="matrix(1 0 0 1 2782 1025 )" />
  </g>
</svg>