<?xml version="1.0" encoding="utf-8"?>
<svg version="1.1" xmlns:xlink="http://www.w3.org/1999/xlink" width="25px" height="37px" xmlns="http://www.w3.org/2000/svg">
  <defs>
    <mask fill="white" id="clip56">
      <path d="M 25 12.95  C 25 14.6406422774558  24.7494575914984 16.2076836333841  24.3094290034123 17.6963056771833  C 22.3419320646171 24.3523716544743  16.5861393094833 29.4406422774558  12.5 37  C 7.5 27.75  0 22.2  0 12.95  C 0 8.13999999999999  2.5 0  12.5 0  C 22.5 0  25 8.13999999999999  25 12.95  Z " fill-rule="evenodd" />
    </mask>
  </defs>
  <g transform="matrix(1 0 0 1 -2871 -752 )">
    <path d="M 25 12.95  C 25 14.6406422774558  24.7494575914984 16.2076836333841  24.3094290034123 17.6963056771833  C 22.3419320646171 24.3523716544743  16.5861393094833 29.4406422774558  12.5 37  C 7.5 27.75  0 22.2  0 12.95  C 0 8.13999999999999  2.5 0  12.5 0  C 22.5 0  25 8.13999999999999  25 12.95  Z " fill-rule="nonzero" fill="#facd91" stroke="none" transform="matrix(1 0 0 1 2871 752 )" />
    <path d="M 25 12.95  C 25 14.6406422774558  24.7494575914984 16.2076836333841  24.3094290034123 17.6963056771833  C 22.3419320646171 24.3523716544743  16.5861393094833 29.4406422774558  12.5 37  C 7.5 27.75  0 22.2  0 12.95  C 0 8.13999999999999  2.5 0  12.5 0  C 22.5 0  25 8.13999999999999  25 12.95  Z " stroke-width="2" stroke="#797979" fill="none" transform="matrix(1 0 0 1 2871 752 )" mask="url(#clip56)" />
  </g>
</svg>