<?xml version="1.0" encoding="utf-8"?>
<svg version="1.1" xmlns:xlink="http://www.w3.org/1999/xlink" width="25px" height="37px" xmlns="http://www.w3.org/2000/svg">
  <g transform="matrix(1 0 0 1 -2886 -426 )">
    <path d="M 2898.5 461.965348827488  C 2893.7 453.113291586146  2886.5 447.802057241342  2886.5 438.95  C 2886.5 434.325714285714  2888.9 426.5  2898.5 426.5  C 2908.1 426.5  2910.5 434.325714285714  2910.5 438.95  C 2910.5 447.802057241342  2903.3 453.113291586146  2898.5 461.965348827488  Z " fill-rule="nonzero" fill="#facd91" stroke="none" />
    <path d="M 2898.5 463  C 2893.5 453.75  2886 448.2  2886 438.95  C 2886 434.14  2888.5 426  2898.5 426  C 2908.5 426  2911 434.14  2911 438.95  C 2911 448.2  2903.5 453.75  2898.5 463  Z M 2898.5 460.930697654976  C 2903.1 452.476583172293  2910 447.404114482683  2910 438.95  C 2910 434.511428571429  2907.7 427  2898.5 427  C 2889.3 427  2887 434.511428571429  2887 438.95  C 2887 447.404114482683  2893.9 452.476583172293  2898.5 460.930697654976  Z " fill-rule="nonzero" fill="#797979" stroke="none" />
  </g>
</svg>