<?xml version="1.0" encoding="utf-8"?>
<svg version="1.1" xmlns:xlink="http://www.w3.org/1999/xlink" width="29px" height="40px" xmlns="http://www.w3.org/2000/svg">
  <g transform="matrix(1 0 0 1 -986 -2878 )">
    <path d="M 1000.5 2917.01448970946  C 994.9 2907.3935321289  986.5 2901.62095758056  986.5 2892  C 986.5 2886.98571428571  989.3 2878.5  1000.5 2878.5  C 1011.7 2878.5  1014.5 2886.98571428571  1014.5 2892  C 1014.5 2901.62095758056  1006.1 2907.3935321289  1000.5 2917.01448970946  Z " fill-rule="nonzero" fill="#d9001b" stroke="none" />
    <path d="M 1000.5 2918  C 994.7 2908  986 2902  986 2892  C 986 2886.8  988.9 2878  1000.5 2878  C 1012.1 2878  1015 2886.8  1015 2892  C 1015 2902  1006.3 2908  1000.5 2918  Z M 1000.5 2916.02897941892  C 1005.9 2906.7870642578  1014 2901.24191516112  1014 2892  C 1014 2887.17142857143  1011.3 2879  1000.5 2879  C 989.7 2879  987 2887.17142857143  987 2892  C 987 2901.24191516112  995.1 2906.7870642578  1000.5 2916.02897941892  Z " fill-rule="nonzero" fill="#797979" stroke="none" />
  </g>
</svg>