<?xml version="1.0" encoding="utf-8"?>
<svg version="1.1" xmlns:xlink="http://www.w3.org/1999/xlink" width="18px" height="16px" xmlns="http://www.w3.org/2000/svg">
  <g transform="matrix(1 0 0 1 -1209 -2931 )">
    <path d="M 14.0524553571429 9.42708333333333  C 14.1127232142857 9.48958333333333  14.1428571428571 9.56944444444444  14.1428571428571 9.66666666666667  L 14.1428571428571 13  C 14.1428571428571 13.8263888888889  13.8599330357143 14.5329861111111  13.2940848214286 15.1197916666667  C 12.7282366071429 15.7065972222222  12.046875 16  11.25 16  L 2.89285714285714 16  C 2.09598214285714 16  1.41462053571429 15.7065972222222  0.848772321428571 15.1197916666667  C 0.282924107142857 14.5329861111111  0 13.8263888888889  0 13  L 0 4.33333333333333  C 0 3.50694444444444  0.282924107142857 2.80034722222222  0.848772321428571 2.21354166666667  C 1.41462053571429 1.62673611111111  2.09598214285714 1.33333333333333  2.89285714285714 1.33333333333333  L 9.96428571428572 1.33333333333333  C 10.0580357142857 1.33333333333333  10.1350446428571 1.36458333333333  10.1953125 1.42708333333333  C 10.2555803571429 1.48958333333333  10.2857142857143 1.56944444444444  10.2857142857143 1.66666666666667  L 10.2857142857143 2.33333333333333  C 10.2857142857143 2.43055555555556  10.2555803571429 2.51041666666667  10.1953125 2.57291666666667  C 10.1350446428571 2.63541666666667  10.0580357142857 2.66666666666667  9.96428571428572 2.66666666666667  L 2.89285714285714 2.66666666666667  C 2.45089285714286 2.66666666666667  2.07254464285714 2.82986111111111  1.7578125 3.15625  C 1.44308035714286 3.48263888888889  1.28571428571429 3.875  1.28571428571429 4.33333333333333  L 1.28571428571429 13  C 1.28571428571429 13.4583333333333  1.44308035714286 13.8506944444444  1.7578125 14.1770833333333  C 2.07254464285714 14.5034722222222  2.45089285714286 14.6666666666667  2.89285714285714 14.6666666666667  L 11.25 14.6666666666667  C 11.6919642857143 14.6666666666667  12.0703125 14.5034722222222  12.3850446428571 14.1770833333333  C 12.6997767857143 13.8506944444444  12.8571428571429 13.4583333333333  12.8571428571429 13  L 12.8571428571429 9.66666666666667  C 12.8571428571429 9.56944444444444  12.8872767857143 9.48958333333333  12.9475446428571 9.42708333333333  C 13.0078125 9.36458333333333  13.0848214285714 9.33333333333333  13.1785714285714 9.33333333333333  L 13.8214285714286 9.33333333333333  C 13.9151785714286 9.33333333333333  13.9921875 9.36458333333333  14.0524553571429 9.42708333333333  Z M 17.8091517857143 0.197916666666666  C 17.9363839285714 0.329861111111109  18 0.486111111111109  18 0.666666666666666  L 18 6  C 18 6.18055555555556  17.9363839285714 6.33680555555556  17.8091517857143 6.46875  C 17.6819196428571 6.60069444444444  17.53125 6.66666666666667  17.3571428571429 6.66666666666667  C 17.1830357142857 6.66666666666667  17.0323660714286 6.60069444444444  16.9051339285714 6.46875  L 15.1372767857143 4.63541666666667  L 8.58816964285714 11.4270833333333  C 8.52120535714286 11.4965277777778  8.44419642857143 11.53125  8.35714285714286 11.53125  C 8.27008928571429 11.53125  8.19308035714286 11.4965277777778  8.12611607142857 11.4270833333333  L 6.98102678571429 10.2395833333333  C 6.9140625 10.1701388888889  6.88058035714286 10.0902777777778  6.88058035714286 10  C 6.88058035714286 9.90972222222222  6.9140625 9.82986111111111  6.98102678571429 9.76041666666667  L 13.5301339285714 2.96875  L 11.7622767857143 1.13541666666667  C 11.6350446428571 1.00347222222222  11.5714285714286 0.847222222222221  11.5714285714286 0.666666666666666  C 11.5714285714286 0.486111111111109  11.6350446428571 0.329861111111109  11.7622767857143 0.197916666666666  C 11.8895089285714 0.0659722222222232  12.0401785714286 0  12.2142857142857 0  L 17.3571428571429 0  C 17.53125 0  17.6819196428571 0.0659722222222232  17.8091517857143 0.197916666666666  Z " fill-rule="nonzero" fill="#000000" stroke="none" transform="matrix(1 0 0 1 1209 2931 )" />
  </g>
</svg>