<?xml version="1.0" encoding="utf-8"?>
<svg version="1.1" xmlns:xlink="http://www.w3.org/1999/xlink" width="11px" height="10px" xmlns="http://www.w3.org/2000/svg">
  <g transform="matrix(1 0 0 1 -703 -48 )">
    <path d="M 10.7387676508344 4.13351314902225  C 10.9129225502781 4.30883344571814  11 4.51337379186334  11 4.74713418745786  C 11 4.98538997527534  10.9129225502781 5.18768262530906  10.7387676508344 5.354012137559  L 6.14249037227214 9.75050573162508  C 5.9589216944801 9.91683524387503  5.74475823705605 10  5.5 10  C 5.25053487376979 10  5.03872486093282 9.91683524387503  4.86456996148909 9.75050573162508  L 0.268292682926829 5.354012137559  C 0.0894308943089431 5.19217801753203  0 4.98988536749831  0 4.74713418745786  C 0 4.50887839964037  0.0894308943089431 4.30433805349517  0.268292682926829 4.13351314902225  L 0.790757381258023 3.62778152393796  C 0.974326059050064 3.46145201168802  1.18848951647411 3.37828725556305  1.43324775353017 3.37828725556305  C 1.68271287976038 3.37828725556305  1.89452289259735 3.46145201168802  2.06867779204108 3.62778152393796  L 4.14441591784339 5.61024949426838  L 4.14441591784339 0.863115306810519  C 4.14441591784339 0.629354911216004  4.23384681215233 0.427062261182287  4.41270860077022 0.256237356709373  C 4.5915703893881 0.0854124522364563  4.80338040222508 0  5.04813863928113 0  L 5.95186136071887 0  C 6.19661959777493 0  6.4084296106119 0.0854124522364563  6.58729139922978 0.256237356709373  C 6.76615318784767 0.427062261182287  6.85558408215661 0.629354911216004  6.85558408215661 0.863115306810519  L 6.85558408215661 5.61024949426838  L 8.93132220795892 3.62778152393796  C 9.10547710740265 3.46145201168802  9.31728712023962 3.37828725556305  9.56675224646983 3.37828725556305  C 9.81151048352589 3.37828725556305  10.0256739409499 3.46145201168802  10.209242618742 3.62778152393796  L 10.7387676508344 4.13351314902225  Z " fill-rule="nonzero" fill="#000000" stroke="none" transform="matrix(1 0 0 1 703 48 )" />
  </g>
</svg>