<?xml version="1.0" encoding="utf-8"?>
<svg version="1.1" xmlns:xlink="http://www.w3.org/1999/xlink" width="32px" height="38px" xmlns="http://www.w3.org/2000/svg">
  <g transform="matrix(1 0 0 1 -135 -643 )">
    <path d="M 150.334703379645 643.5  C 150.334703379645 643.5  146.749089136105 645.628958457101  146.749089136105 645.628958457101  C 146.749089136105 645.628958457101  135.602848085621 662  135.602848085621 662  C 135.602848085621 662  146.749089136105 678.371041542899  146.749089136105 678.371041542899  C 146.749089136105 678.371041542899  150.334703379645 680.5  150.334703379645 680.5  C 150.334703379645 680.5  166.5 680.5  166.5 680.5  C 166.5 680.5  166.5 643.5  166.5 643.5  C 166.5 643.5  150.334703379645 643.5  150.334703379645 643.5  Z " fill-rule="nonzero" fill="#5c86fe" stroke="none" />
    <path d="M 150.334703379645 643.5  C 150.334703379645 643.5  146.749089136105 645.628958457101  146.749089136105 645.628958457101  C 146.749089136105 645.628958457101  135.602848085621 662  135.602848085621 662  C 135.602848085621 662  146.749089136105 678.371041542899  146.749089136105 678.371041542899  C 146.749089136105 678.371041542899  150.334703379645 680.5  150.334703379645 680.5  C 150.334703379645 680.5  166.5 680.5  166.5 680.5  C 166.5 680.5  166.5 643.5  166.5 643.5  C 166.5 643.5  150.334703379645 643.5  150.334703379645 643.5  Z " stroke-width="1" stroke="#5c86fe" fill="none" />
  </g>
</svg>