<?xml version="1.0" encoding="utf-8"?>
<svg version="1.1" xmlns:xlink="http://www.w3.org/1999/xlink" width="40px" height="43px" xmlns="http://www.w3.org/2000/svg">
  <g transform="matrix(1 0 0 1 -1229 -640 )">
    <path d="M 1251.67460046644 640.5  C 1251.67460046644 640.5  1255.45603763164 642.532522476299  1255.45603763164 642.532522476299  C 1255.45603763164 642.532522476299  1268.39509206642 661.5  1268.39509206642 661.5  C 1268.39509206642 661.5  1255.45603763164 680.467477523701  1255.45603763164 680.467477523701  C 1255.45603763164 680.467477523701  1251.67460046644 682.5  1251.67460046644 682.5  C 1251.67460046644 682.5  1229.5 682.5  1229.5 682.5  C 1229.5 682.5  1229.5 640.5  1229.5 640.5  C 1229.5 640.5  1251.67460046644 640.5  1251.67460046644 640.5  Z " fill-rule="nonzero" fill="#5c86fe" stroke="none" />
    <path d="M 1251.67460046644 640.5  C 1251.67460046644 640.5  1255.45603763164 642.532522476299  1255.45603763164 642.532522476299  C 1255.45603763164 642.532522476299  1268.39509206642 661.5  1268.39509206642 661.5  C 1268.39509206642 661.5  1255.45603763164 680.467477523701  1255.45603763164 680.467477523701  C 1255.45603763164 680.467477523701  1251.67460046644 682.5  1251.67460046644 682.5  C 1251.67460046644 682.5  1229.5 682.5  1229.5 682.5  C 1229.5 682.5  1229.5 640.5  1229.5 640.5  C 1229.5 640.5  1251.67460046644 640.5  1251.67460046644 640.5  Z " stroke-width="1" stroke="#797979" fill="none" />
  </g>
</svg>