<svg width="678" height="389" viewBox="0 0 678 389" fill="none" xmlns="http://www.w3.org/2000/svg">
<path fill-rule="evenodd" clip-rule="evenodd" d="M29.7465 346.228L73.8215 332.365L183.916 277.673L708.545 312.184L512.199 387.799L29.7465 346.228Z" fill="url(#paint0_linear)" fill-opacity="0.7"/>
<path fill-rule="evenodd" clip-rule="evenodd" d="M512.383 3.11769L35.5339 60.0264L35.4773 341.94L512.845 383.205L512.383 3.11769ZM521.985 384.225L512.383 388.028L39.3484 346.844L34.4365 343.053V58.9195L38.7862 55.1748L512.383 1.08643L521.985 7.29916V384.225Z" fill="url(#paint1_linear)"/>
<path d="M511.578 387.236L512.272 387.295V386.599V2.40112V1.69867L511.572 1.76389L26.9184 46.9521L26.3374 47.0063L26.3378 47.5899L26.587 345.73L26.5875 346.318L27.1732 346.367L511.578 387.236Z" stroke="#3364ED" stroke-width="1.28"/>
<path fill-rule="evenodd" clip-rule="evenodd" d="M511.632 386.599L27.1686 345.686L26.9569 47.6073L511.421 2.43457L511.632 386.599Z" fill="#E0EBFE"/>
<mask id="mask0" mask-type="alpha" maskUnits="userSpaceOnUse" x="26" y="2" width="486" height="385">
<path fill-rule="evenodd" clip-rule="evenodd" d="M511.632 386.599L27.1686 345.686L26.9569 47.6073L511.421 2.43457L511.632 386.599Z" fill="white"/>
</mask>
<g mask="url(#mask0)">
<path fill-rule="evenodd" clip-rule="evenodd" d="M225.862 86.6777L491.424 66.8931V145.789L225.862 153.131V86.6777Z" fill="white"/>
<path fill-rule="evenodd" clip-rule="evenodd" d="M236.602 99.2045L477.756 82.583V133.064L236.602 141.068V99.2045Z" fill="#E0EBFE"/>
<path fill-rule="evenodd" clip-rule="evenodd" d="M489.606 367.817L286.394 351.519V219.939L489.606 219.561V367.817Z" fill="white"/>
<path fill-rule="evenodd" clip-rule="evenodd" d="M471.129 315.158L463.729 316.64L262.104 298.564L260.034 296.784V165.802L261.867 164.044L462.909 150.12L471.129 151.385V315.158Z" fill="url(#paint2_linear)"/>
<rect x="-25.0552" y="23.4724" width="131.149" height="343.221" fill="#2E344D"/>
<path fill-rule="evenodd" clip-rule="evenodd" d="M119.666 94.9099L214.37 86.8545V346.22L119.666 338.231V94.9099Z" fill="white"/>
<path fill-rule="evenodd" clip-rule="evenodd" d="M135.819 216.775L195.422 218.546V231.06L135.819 229.29L135.819 216.775Z" fill="#E0EBFE"/>
<path fill-rule="evenodd" clip-rule="evenodd" d="M135.819 248.365L195.422 250.135V262.65L135.819 260.88L135.819 248.365Z" fill="#E0EBFE"/>
<path fill-rule="evenodd" clip-rule="evenodd" d="M135.819 278.754L195.422 281.805V294.32L135.819 291.269L135.819 278.754Z" fill="#E0EBFE"/>
<path fill-rule="evenodd" clip-rule="evenodd" d="M135.819 310.344L195.422 314.675V327.19L135.819 322.858L135.819 310.344Z" fill="#E0EBFE"/>
<path fill-rule="evenodd" clip-rule="evenodd" d="M-15.2511 91.7526L-15.2416 50.2362L552.691 -1.05584L552.68 45.3277L-15.2511 91.7526Z" fill="url(#paint3_linear)"/>
<mask id="mask1" mask-type="alpha" maskUnits="userSpaceOnUse" x="-20" y="-10" width="578" height="115">
<path fill-rule="evenodd" clip-rule="evenodd" d="M-15.2511 91.7526L-15.2416 50.2362L552.691 -1.05584L552.68 45.3277L-15.2511 91.7526Z" fill="white"/>
</mask>
<g mask="url(#mask1)">
</g>
<path fill-rule="evenodd" clip-rule="evenodd" d="M-17.5519 67.6226L-17.5428 29.0352L550.389 -21.0569L550.38 17.5305L-17.5519 67.6226Z" fill="white"/>
</g>
<path fill-rule="evenodd" clip-rule="evenodd" d="M37.7085 57.4329C39.3093 57.2647 40.4703 55.8276 40.3016 54.2232C40.133 52.6188 38.6986 51.4546 37.0979 51.6229C35.4971 51.7911 34.3361 53.2281 34.5047 54.8325C34.6734 56.4369 36.1077 57.6012 37.7085 57.4329Z" fill="#E08891"/>
<path fill-rule="evenodd" clip-rule="evenodd" d="M46.9835 56.458C48.5843 56.2898 49.7453 54.8528 49.5767 53.2484C49.408 51.644 47.9737 50.4797 46.3729 50.648C44.7721 50.8162 43.6111 52.2533 43.7798 53.8577C43.9484 55.4621 45.3828 56.6263 46.9835 56.458Z" fill="#E8AB2D"/>
<path fill-rule="evenodd" clip-rule="evenodd" d="M56.2586 55.4832C57.8594 55.3149 59.0204 53.8779 58.8518 52.2735C58.6831 50.6691 57.2487 49.5049 55.648 49.6731C54.0472 49.8414 52.8862 51.2784 53.0548 52.8828C53.2235 54.4872 54.6579 55.6514 56.2586 55.4832Z" fill="#7ED321"/>
<path fill-rule="evenodd" clip-rule="evenodd" d="M48.144 73.6699L44.123 74.0722C43.819 72.9305 42.6868 72.2795 41.4804 72.5528C40.2739 72.826 39.3697 73.9383 39.3697 75.1489C39.3697 76.3595 40.2739 77.2907 41.4804 77.3226C42.6868 77.3544 43.819 76.4768 44.123 75.2743L46.9124 74.9952C46.6516 77.2635 44.953 79.2446 42.7238 79.8805C40.4945 80.5164 38.2552 79.6586 37.2019 77.7651C36.1485 75.8716 36.527 73.3848 38.1354 71.6327C39.7437 69.8806 42.2061 69.2725 44.2075 70.1332C43.8839 71.0636 44.2616 72.0251 45.0998 72.4041C45.9379 72.7832 46.9895 72.4682 47.5837 71.6601C48.1779 70.852 48.1397 69.7888 47.4934 69.1489C46.8472 68.5089 45.7832 68.4807 44.9804 69.0822C42.4718 67.8915 39.3033 68.6237 37.2551 70.8676C35.2069 73.1114 34.7898 76.3073 36.238 78.6595C37.6863 81.0117 40.6389 81.9337 43.4368 80.9075C46.2347 79.8813 48.1802 77.1627 48.1803 74.2793C48.1803 74.0389 48.1682 73.8358 48.144 73.6699ZM41.7804 76.1097C41.1136 76.1764 40.5729 75.6923 40.5729 75.0285C40.5729 74.3646 41.1136 73.7723 41.7804 73.7056C42.4473 73.6389 42.988 74.123 42.988 74.7868C42.988 75.4507 42.4473 76.0429 41.7804 76.1097ZM46.7123 70.2676C46.6002 70.0094 46.336 69.8601 46.043 69.8894C45.6428 69.9294 45.3185 70.2848 45.3185 70.6831C45.3185 70.9748 45.495 71.2201 45.7657 71.3047C46.0364 71.3892 46.3481 71.2963 46.5553 71.0693C46.7625 70.8423 46.8245 70.5259 46.7123 70.2676Z" fill="white"/>
<path d="M44.123 74.0722L43.8331 74.1494L43.8988 74.3962L44.1529 74.3707L44.123 74.0722ZM48.144 73.6699L48.4409 73.6267L48.3996 73.3428L48.1142 73.3714L48.144 73.6699ZM44.123 75.2743L44.0932 74.9758L43.8837 74.9967L43.8322 75.2007L44.123 75.2743ZM46.9124 74.9952L47.2104 75.0294L47.2529 74.6596L46.8825 74.6967L46.9124 74.9952ZM42.7238 79.8805L42.8061 80.169L42.7238 79.8805ZM37.2019 77.7651L37.464 77.6193L37.2019 77.7651ZM38.1354 71.6327L38.3564 71.8356L38.1354 71.6327ZM44.2075 70.1332L44.4909 70.2317L44.5827 69.9679L44.3261 69.8576L44.2075 70.1332ZM45.0998 72.4041L44.9761 72.6775L45.0998 72.4041ZM47.4934 69.1489L47.7045 68.9357L47.4934 69.1489ZM44.9804 69.0822L44.8517 69.3532L45.0153 69.4309L45.1602 69.3223L44.9804 69.0822ZM37.2551 70.8676L37.0335 70.6653L37.2551 70.8676ZM36.238 78.6595L36.4935 78.5022L36.238 78.6595ZM43.4368 80.9075L43.5401 81.1892L43.4368 80.9075ZM48.1803 74.2793L48.4803 74.2793V74.2793H48.1803ZM46.043 69.8894L46.0728 70.1879L46.043 69.8894ZM45.7657 71.3047L45.6763 71.591H45.6763L45.7657 71.3047ZM44.1529 74.3707L48.1739 73.9684L48.1142 73.3714L44.0932 73.7737L44.1529 74.3707ZM41.5467 72.8454C42.6079 72.605 43.5737 73.1753 43.8331 74.1494L44.4129 73.995C44.0643 72.6857 42.7658 71.954 41.4141 72.2602L41.5467 72.8454ZM39.6697 75.1489C39.6697 74.0828 40.4726 73.0886 41.5467 72.8454L41.4141 72.2602C40.0753 72.5634 39.0697 73.7937 39.0697 75.1489H39.6697ZM41.4883 77.0227C40.4453 76.9951 39.6697 76.1977 39.6697 75.1489H39.0697C39.0697 76.5212 40.1026 77.5863 41.4725 77.6225L41.4883 77.0227ZM43.8322 75.2007C43.5611 76.2728 42.5489 77.0506 41.4883 77.0227L41.4725 77.6225C42.8248 77.6581 44.0768 76.6809 44.4139 75.3478L43.8322 75.2007ZM46.8825 74.6967L44.0932 74.9758L44.1529 75.5728L46.9422 75.2937L46.8825 74.6967ZM42.8061 80.169C45.1497 79.5005 46.9355 77.4208 47.2104 75.0294L46.6143 74.9609C46.3677 77.1062 44.7564 78.9888 42.6415 79.592L42.8061 80.169ZM36.9397 77.911C38.0674 79.938 40.4561 80.8394 42.8061 80.169L42.6415 79.592C40.5329 80.1935 38.4431 79.3792 37.464 77.6193L36.9397 77.911ZM37.9144 71.4298C36.2301 73.2647 35.8156 75.8904 36.9397 77.911L37.464 77.6193C36.4814 75.8529 36.824 73.5049 38.3564 71.8356L37.9144 71.4298ZM44.3261 69.8576C42.1938 68.9407 39.5984 69.5953 37.9144 71.4298L38.3564 71.8356C39.889 70.1659 42.2184 69.6044 44.089 70.4088L44.3261 69.8576ZM45.2234 72.1308C44.5419 71.8226 44.2126 71.0319 44.4909 70.2317L43.9242 70.0346C43.5552 71.0954 43.9814 72.2276 44.9761 72.6775L45.2234 72.1308ZM47.342 71.4823C46.8208 72.1912 45.9164 72.4442 45.2234 72.1308L44.9761 72.6775C45.9594 73.1222 47.1582 72.7452 47.8254 71.8378L47.342 71.4823ZM47.2824 69.3621C47.8074 69.882 47.8616 70.7757 47.342 71.4823L47.8254 71.8378C48.4942 70.9282 48.472 69.6956 47.7045 68.9357L47.2824 69.3621ZM45.1602 69.3223C45.8624 68.7962 46.7572 68.842 47.2824 69.3621L47.7045 68.9357C46.9372 68.1758 45.7041 68.1652 44.8005 68.8421L45.1602 69.3223ZM37.4767 71.0698C39.4474 68.9109 42.477 68.226 44.8517 69.3532L45.109 68.8112C42.4667 67.557 39.1593 68.3366 37.0335 70.6653L37.4767 71.0698ZM36.4935 78.5022C35.1246 76.2789 35.5064 73.2283 37.4767 71.0698L37.0335 70.6653C34.9075 72.9944 34.4549 76.3357 35.9826 78.8168L36.4935 78.5022ZM43.3335 80.6259C40.6542 81.6086 37.8587 80.7196 36.4935 78.5022L35.9826 78.8168C37.5139 81.3039 40.6236 82.2589 43.5401 81.1892L43.3335 80.6259ZM47.8803 74.2793C47.8802 77.0313 46.0185 79.6411 43.3335 80.6259L43.5401 81.1892C46.4508 80.1216 48.4802 77.2942 48.4803 74.2793L47.8803 74.2793ZM47.8472 73.7131C47.8685 73.86 47.8803 74.0477 47.8803 74.2793H48.4803C48.4803 74.0301 48.4678 73.8115 48.4409 73.6267L47.8472 73.7131ZM40.2729 75.0285C40.2729 75.873 40.9699 76.4923 41.8103 76.4082L41.7506 75.8112C41.2572 75.8605 40.8729 75.5117 40.8729 75.0285H40.2729ZM41.7506 73.4071C40.9327 73.4889 40.2729 74.2082 40.2729 75.0285H40.8729C40.8729 74.521 41.2945 74.0557 41.8103 74.0041L41.7506 73.4071ZM43.288 74.7868C43.288 73.9423 42.591 73.323 41.7506 73.4071L41.8103 74.0041C42.3037 73.9548 42.688 74.3036 42.688 74.7868H43.288ZM41.8103 76.4082C42.6282 76.3263 43.288 75.6071 43.288 74.7868H42.688C42.688 75.2942 42.2664 75.7595 41.7506 75.8112L41.8103 76.4082ZM46.0728 70.1879C46.2442 70.1708 46.3801 70.2558 46.4371 70.3871L46.9875 70.1482C46.8202 69.7629 46.4278 69.5494 46.0131 69.5909L46.0728 70.1879ZM45.6185 70.6831C45.6185 70.4412 45.8237 70.2128 46.0728 70.1879L46.0131 69.5909C45.4619 69.646 45.0185 70.1284 45.0185 70.6831H45.6185ZM45.8551 71.0183C45.7145 70.9744 45.6185 70.8487 45.6185 70.6831H45.0185C45.0185 71.1009 45.2754 71.4659 45.6763 71.591L45.8551 71.0183ZM46.3337 70.8671C46.1967 71.0172 46.0033 71.0646 45.8551 71.0183L45.6763 71.591C46.0695 71.7138 46.4994 71.5755 46.7768 71.2716L46.3337 70.8671ZM46.4371 70.3871C46.4969 70.5249 46.4705 70.7172 46.3337 70.8671L46.7768 71.2716C47.0544 70.9675 47.152 70.527 46.9875 70.1482L46.4371 70.3871Z" fill="white"/>
<path opacity="0.12" fill-rule="evenodd" clip-rule="evenodd" d="M42.3116 117.217C38.5371 117.438 35.4773 114.554 35.4773 110.775C35.4773 106.997 38.5371 103.754 42.3116 103.533C46.0861 103.312 49.1459 106.196 49.1459 109.974C49.1459 113.753 46.0861 116.996 42.3116 117.217ZM61.3239 105.226L89.6899 102.752C91.8395 102.564 93.7832 104.161 94.0314 106.319C94.0486 106.469 94.0572 106.619 94.0572 106.769C94.0572 109.276 92.1789 111.332 89.6899 111.549L61.3239 114.023C59.1743 114.211 57.2305 112.613 56.9824 110.456C56.9652 110.306 56.9566 110.156 56.9566 110.006C56.9566 107.499 58.8349 105.443 61.3239 105.226Z" fill="white"/>
<path opacity="0.12" fill-rule="evenodd" clip-rule="evenodd" d="M42.173 138.324C38.3934 138.479 35.3828 135.543 35.4488 131.767C35.5147 127.99 38.6321 124.803 42.4117 124.648C46.1914 124.493 49.2019 127.429 49.136 131.205C49.0701 134.982 45.9527 138.169 42.173 138.324ZM61.4009 126.673L89.8198 124.696C91.9734 124.546 93.8899 126.176 94.1005 128.337C94.1151 128.486 94.1211 128.637 94.1185 128.787C94.0748 131.292 92.16 133.314 89.6664 133.487L61.2475 135.464C59.0939 135.614 57.1773 133.984 56.9668 131.823C56.9522 131.673 56.9462 131.523 56.9488 131.373C56.9925 128.867 58.9073 126.846 61.4009 126.673Z" fill="white"/>
<path opacity="0.12" fill-rule="evenodd" clip-rule="evenodd" d="M42.173 159.828C38.3934 159.983 35.3828 157.047 35.4488 153.271C35.5147 149.494 38.6321 146.307 42.4117 146.152C46.1914 145.997 49.2019 148.933 49.136 152.709C49.0701 156.485 45.9527 159.673 42.173 159.828ZM89.8198 146.2C91.9734 146.05 93.8899 147.68 94.1005 149.84C94.1151 149.99 94.1211 150.141 94.1185 150.291C94.0748 152.796 92.16 154.817 89.6664 154.991L61.2475 156.968C59.0939 157.118 57.1773 155.488 56.9668 153.327C56.9522 153.177 56.9462 153.027 56.9488 152.877C56.9925 150.371 58.9073 148.35 61.4009 148.177L89.8198 146.2Z" fill="white"/>
<path fill-rule="evenodd" clip-rule="evenodd" d="M113.608 132.97L214.669 129.505L214.893 134.61L113.881 138.071L113.608 132.97Z" fill="#E0EBFE"/>
<path fill-rule="evenodd" clip-rule="evenodd" d="M463.897 315.457L252.234 303.195L252.243 163.335L463.805 151.113L463.897 315.457Z" fill="white" stroke="#0056EC" stroke-width="1.28"/>
<path opacity="0.6" fill-rule="evenodd" clip-rule="evenodd" d="M453.933 306.3L258.387 297.038L258.361 167.995L453.849 158.098L453.933 306.3Z" fill="#E1E7FF"/>
<mask id="mask2" mask-type="alpha" maskUnits="userSpaceOnUse" x="258" y="158" width="196" height="149">
<path fill-rule="evenodd" clip-rule="evenodd" d="M453.933 306.3L258.387 297.038L258.361 167.995L453.849 158.098L453.933 306.3Z" fill="white"/>
</mask>
<g mask="url(#mask2)">
<path fill-rule="evenodd" clip-rule="evenodd" d="M191.69 108.51L487.519 116.915V254.678L191.69 253.104V108.51Z" fill="url(#paint4_linear)"/>
<mask id="mask3" mask-type="alpha" maskUnits="userSpaceOnUse" x="191" y="108" width="297" height="147">
<path fill-rule="evenodd" clip-rule="evenodd" d="M191.69 108.51L487.519 116.915V254.678L191.69 253.104V108.51Z" fill="white"/>
</mask>
<g mask="url(#mask3)">
<path opacity="0.6" d="M321.657 165.142V255.745" stroke="white" stroke-width="1.46542" stroke-dasharray="3.91"/>
<rect opacity="0.2" x="280.537" y="117.308" width="25.3846" height="147.595" fill="white"/>
<rect opacity="0.2" x="336.188" y="117.308" width="27.3373" height="147.595" fill="white"/>
<rect opacity="0.2" x="394.767" y="117.308" width="29.29" height="147.595" fill="white"/>
</g>
<path d="M251.571 235.891L293.952 235.038L321.153 191.896L353.123 223.785L380.657 203.801L414.41 223.785L454.206 222.678" stroke="white" stroke-width="3.90779"/>
<path d="M303.764 219.399L321.153 191.896L340.627 211.321" stroke="#FF6300" stroke-width="3.90779"/>
</g>
<path fill-rule="evenodd" clip-rule="evenodd" d="M321.399 212.007C332.417 211.606 341.153 202.328 340.913 191.283C340.672 180.238 331.546 171.61 320.529 172.011C309.512 172.412 300.776 181.69 301.016 192.735C301.256 203.78 310.382 212.408 321.399 212.007Z" fill="#FF6300" fill-opacity="0.261747" stroke="#FF6300" stroke-width="2.93084"/>
<path fill-rule="evenodd" clip-rule="evenodd" d="M293.703 239.654C296.665 239.546 299.014 237.052 298.949 234.083C298.884 231.114 296.431 228.794 293.47 228.902C290.508 229.01 288.159 231.504 288.224 234.473C288.289 237.442 290.742 239.762 293.703 239.654Z" fill="white"/>
<path fill-rule="evenodd" clip-rule="evenodd" d="M352.983 228.501C355.945 228.393 358.293 225.899 358.229 222.93C358.164 219.961 355.711 217.641 352.749 217.749C349.788 217.857 347.439 220.351 347.504 223.32C347.568 226.289 350.022 228.609 352.983 228.501Z" fill="white"/>
<path fill-rule="evenodd" clip-rule="evenodd" d="M380.872 209.691C383.833 209.583 386.182 207.089 386.117 204.12C386.053 201.151 383.599 198.831 380.638 198.939C377.676 199.047 375.327 201.541 375.392 204.51C375.457 207.479 377.91 209.799 380.872 209.691Z" fill="white"/>
<path fill-rule="evenodd" clip-rule="evenodd" d="M414.471 229.129C417.432 229.021 419.781 226.527 419.716 223.558C419.652 220.589 417.199 218.269 414.237 218.377C411.275 218.485 408.927 220.979 408.991 223.948C409.056 226.917 411.509 229.237 414.471 229.129Z" fill="white"/>
<path fill-rule="evenodd" clip-rule="evenodd" d="M321.081 197.385C324.043 197.277 326.392 194.783 326.327 191.814C326.262 188.845 323.809 186.525 320.847 186.633C317.886 186.741 315.537 189.235 315.602 192.204C315.666 195.173 318.12 197.493 321.081 197.385Z" fill="white"/>
<path fill-rule="evenodd" clip-rule="evenodd" d="M267.844 261.692L354.488 262.992V291.365L267.844 287.896L267.844 261.692Z" fill="#2E344D"/>
<path fill-rule="evenodd" clip-rule="evenodd" d="M362.217 263.26L442.141 264.41V295.322L362.217 292.12V263.26Z" fill="#FF6300"/>
<path fill-rule="evenodd" clip-rule="evenodd" d="M384.918 278.418C384.918 282.605 381.625 285.913 377.55 285.819C373.475 285.725 370.182 282.352 370.182 278.271C370.182 274.19 373.475 270.883 377.55 270.87C381.625 270.857 384.918 274.23 384.918 278.418ZM377.914 272.992L376.459 272.992V279.623L381.371 279.683V278.196L377.914 278.163V272.992Z" fill="#FFEAB9"/>
<path fill-rule="evenodd" clip-rule="evenodd" d="M397.059 284.12C394.875 284.029 393.4 282.1 393.4 278.535C393.4 274.969 394.875 273.262 397.059 273.332C399.243 273.402 400.731 275.244 400.731 278.805C400.731 282.393 399.243 284.211 397.059 284.12ZM397.059 282.192C397.796 282.221 398.394 281.573 398.394 278.719C398.394 275.879 397.796 275.271 397.059 275.246C396.321 275.221 395.737 275.788 395.737 278.621C395.737 281.469 396.321 282.162 397.059 282.192ZM405.267 284.456C403.611 284.389 402.47 283.711 401.65 282.864L402.776 281.337C403.361 281.921 404.084 282.384 404.905 282.416C405.906 282.455 406.532 281.93 406.532 280.846C406.532 279.79 405.906 279.204 405.016 279.172C404.446 279.151 404.167 279.253 403.555 279.624L402.47 278.868L402.735 273.711L408.55 273.901V275.987L404.863 275.862L404.71 277.628C405.086 277.487 405.392 277.441 405.781 277.455C407.534 277.516 409.009 278.612 409.009 280.882C409.009 283.237 407.256 284.535 405.267 284.456ZM410.469 281.26V279.496L414.406 279.637V281.405L410.469 281.26ZM415.686 284.665V283.222C418.274 280.922 420.013 279.07 420.013 277.538C420.013 276.574 419.484 276.031 418.663 276.004C417.954 275.98 417.397 276.443 416.91 276.964L415.561 275.56C416.577 274.503 417.522 273.996 418.997 274.044C421 274.11 422.392 275.461 422.392 277.477C422.392 279.294 420.861 281.242 419.275 282.816C419.79 282.763 420.5 282.718 420.959 282.735L422.865 282.803V284.933L415.686 284.665ZM426.245 280.493L428.22 280.561V279.011C428.22 278.343 428.29 277.335 428.318 276.668L428.262 276.666C427.998 277.254 427.72 277.856 427.427 278.444L426.245 280.493ZM431.684 280.68V282.601L430.53 282.561V285.208L428.22 285.127V282.481L423.88 282.328V280.581L427.483 274.521L430.53 274.621V280.64L431.684 280.68Z" fill="white"/>
<path fill-rule="evenodd" clip-rule="evenodd" d="M284.549 269.01L291.517 279.837C291.99 280.571 291.787 281.526 291.065 281.971C290.811 282.128 290.514 282.206 290.21 282.195L276.273 281.719C275.411 281.69 274.711 280.97 274.711 280.113C274.711 279.811 274.8 279.518 274.966 279.271L281.935 268.921C282.407 268.219 283.375 268.051 284.097 268.545C284.277 268.669 284.431 268.827 284.549 269.01Z" fill="#FF6300"/>
<path fill-rule="evenodd" clip-rule="evenodd" d="M282.588 277.276L282.159 274.207L282.096 272.601L284.388 272.679L284.325 274.281L283.896 277.321L282.588 277.276ZM283.242 280.404C282.581 280.382 282.096 279.878 282.096 279.201C282.096 278.544 282.581 278.052 283.242 278.075C283.902 278.098 284.388 278.622 284.388 279.279C284.388 279.957 283.902 280.427 283.242 280.404Z" fill="#FFEAB9"/>
<path fill-rule="evenodd" clip-rule="evenodd" d="M299.831 281.292L299.806 279.435L301.842 279.468L301.768 273.99L300.004 273.982L299.985 272.563C301.012 272.37 301.678 272.112 302.341 271.697L304.026 271.697L304.136 279.505L305.863 279.533L305.89 281.414L299.831 281.292ZM309.089 277.259L310.918 277.281L310.896 275.842C310.886 275.222 310.936 274.285 310.953 273.664L310.901 273.664C310.665 274.217 310.416 274.783 310.154 275.335L309.089 277.259ZM314.126 277.319L314.154 279.113L313.085 279.096L313.124 281.562L310.983 281.518L310.945 279.063L306.925 279.001L306.901 277.391L310.15 271.697L312.968 271.698L313.057 277.306L314.126 277.319ZM316.934 277.354L318.764 277.376L318.739 275.914C318.728 275.284 318.777 274.332 318.792 273.701L318.74 273.701C318.505 274.263 318.257 274.838 317.996 275.398L316.934 277.354ZM321.972 277.417L322.004 279.24L320.934 279.222L320.977 281.728L318.836 281.683L318.794 279.187L314.773 279.123L314.747 277.486L317.986 271.701L320.804 271.704L320.902 277.403L321.972 277.417ZM326.265 281.843L326.123 274.094L327.99 274.106L328.163 275.091L328.215 275.092C328.808 274.453 329.429 273.923 330.42 273.929C331.437 273.936 332.064 274.394 332.454 275.238C333.071 274.554 333.742 273.95 334.72 273.957C336.317 273.967 337.037 275.211 337.078 277.187L337.177 282.086L334.881 282.034L334.79 277.462C334.769 276.381 334.505 276.06 333.925 276.054C333.59 276.05 333.195 276.267 332.766 276.745L332.869 281.989L330.56 281.937L330.473 277.404C330.453 276.333 330.189 276.014 329.61 276.008C329.275 276.005 328.88 276.22 328.451 276.694L328.548 281.893L326.265 281.843ZM341.167 282.373C340.213 282.351 339.068 281.877 338.319 281.191L339.306 279.661C339.988 280.233 340.6 280.525 341.18 280.536C341.786 280.548 342.039 280.315 342.031 279.921C342.021 279.444 341.307 279.207 340.552 278.871C339.668 278.479 338.624 277.821 338.597 276.509C338.566 275.001 339.678 273.99 341.377 274.002C342.536 274.01 343.371 274.523 344.027 275.051L343.028 276.534C342.504 276.134 341.983 275.847 341.494 275.842C340.978 275.836 340.725 276.03 340.733 276.408C340.743 276.885 341.417 277.076 342.183 277.381C343.106 277.774 344.137 278.367 344.168 279.82C344.2 281.302 343.167 282.42 341.167 282.373Z" fill="white"/>
<path fill-rule="evenodd" clip-rule="evenodd" d="M24.0638 149.922C10.7742 159.906 1.30566 176.348 1.30566 195.992C1.30566 214.994 10.8686 230.811 23.8569 240.715M100.234 222.869C104.19 214.909 106.417 205.756 106.417 195.992C106.417 185.175 103.56 175.04 98.6075 166.425" fill="white"/>
<path d="M23.477 149.141C9.95683 159.298 0.328717 176.022 0.328717 195.992H2.28261C2.28261 176.674 11.5916 160.514 24.6506 150.703L23.477 149.141ZM0.328717 195.992C0.328717 215.339 10.0672 231.428 23.2645 241.492L24.4493 239.938C11.67 230.193 2.28261 214.65 2.28261 195.992H0.328717ZM101.109 223.304C105.133 215.207 107.394 205.905 107.394 195.992H105.44C105.44 205.607 103.248 214.611 99.3596 222.434L101.109 223.304ZM107.394 195.992C107.394 185.002 104.491 174.699 99.4545 165.939L97.7606 166.912C102.628 175.381 105.44 185.348 105.44 195.992H107.394Z" fill="#3364ED"/>
<path fill-rule="evenodd" clip-rule="evenodd" d="M54.8714 250.834C83.479 250.699 105.66 226.087 105.66 195.494C105.66 164.901 82.469 139.954 53.8614 140.09C27.853 140.213 2.06281 163.798 2.06281 195.985C2.06281 228.171 29.9011 250.953 54.8714 250.834Z" fill="white"/>
<path d="M54.7862 247.247C81.7064 247.12 102.398 223.978 102.398 195.492C102.398 166.982 80.7636 143.551 53.8544 143.678C29.3863 143.794 5.32431 165.908 5.32431 195.937C5.32431 226.044 31.3291 247.358 54.7862 247.247Z" fill="#799DFF" stroke="#FF6300" stroke-width="2.93084"/>
<mask id="mask4" mask-type="alpha" maskUnits="userSpaceOnUse" x="3" y="142" width="101" height="107">
<path d="M54.7862 247.247C81.7064 247.12 102.398 223.978 102.398 195.492C102.398 166.982 80.7636 143.551 53.8544 143.678C29.3863 143.794 5.32431 165.908 5.32431 195.937C5.32431 226.044 31.3291 247.358 54.7862 247.247Z" fill="white" stroke="white" stroke-width="2.93084"/>
</mask>
<g mask="url(#mask4)">
<g opacity="0.6">
<path fill-rule="evenodd" clip-rule="evenodd" d="M-99.2742 135.064L228.796 133.219L228.671 135.013L-99.3997 136.858L-99.2742 135.064Z" fill="white"/>
<path fill-rule="evenodd" clip-rule="evenodd" d="M-100.905 158.387L227.166 156.542L227.04 158.336L-101.031 160.181L-100.905 158.387Z" fill="white"/>
<path fill-rule="evenodd" clip-rule="evenodd" d="M-102.536 181.711L225.535 179.866L225.409 181.66L-102.662 183.505L-102.536 181.711Z" fill="white"/>
<path fill-rule="evenodd" clip-rule="evenodd" d="M-104.167 205.034L223.904 203.189L223.778 204.983L-104.292 206.828L-104.167 205.034Z" fill="white"/>
<path fill-rule="evenodd" clip-rule="evenodd" d="M-105.798 228.358L222.273 226.513L222.147 228.307L-105.923 230.152L-105.798 228.358Z" fill="white"/>
<path fill-rule="evenodd" clip-rule="evenodd" d="M-107.429 251.681L220.642 249.836L220.516 251.631L-107.554 253.476L-107.429 251.681Z" fill="white"/>
<path fill-rule="evenodd" clip-rule="evenodd" d="M-6.85685 357.172L-8.70189 29.1014L-6.90777 29.2268L-5.06272 357.297L-6.85685 357.172Z" fill="white"/>
<path fill-rule="evenodd" clip-rule="evenodd" d="M16.4667 358.803L14.6217 30.7325L16.4158 30.8579L18.2608 358.929L16.4667 358.803Z" fill="white"/>
<path fill-rule="evenodd" clip-rule="evenodd" d="M39.7903 360.434L37.9453 32.3633L39.7394 32.4888L41.5844 360.559L39.7903 360.434Z" fill="white"/>
<path fill-rule="evenodd" clip-rule="evenodd" d="M63.1139 362.065L61.2689 33.9942L63.063 34.1196L64.908 362.19L63.1139 362.065Z" fill="white"/>
<path fill-rule="evenodd" clip-rule="evenodd" d="M86.4375 363.696L84.5925 35.6253L86.3866 35.7507L88.2316 363.821L86.4375 363.696Z" fill="white"/>
<path fill-rule="evenodd" clip-rule="evenodd" d="M109.761 365.327L107.916 37.2561L109.71 37.3816L111.555 365.452L109.761 365.327Z" fill="white"/>
</g>
<path fill-rule="evenodd" clip-rule="evenodd" d="M40.2145 192.793C46.0462 192.499 50.5837 187.01 50.3495 180.532C50.1152 174.054 45.1979 169.041 39.3662 169.335C33.5346 169.629 28.997 175.118 29.2313 181.596C29.4655 188.074 34.3829 193.087 40.2145 192.793Z" fill="white" stroke="#FF6300" stroke-width="1.23404"/>
<path fill-rule="evenodd" clip-rule="evenodd" d="M39.9689 186.003C42.4244 185.879 44.3349 183.567 44.2363 180.84C44.1377 178.112 42.0672 176.002 39.6118 176.125C37.1563 176.249 35.2458 178.561 35.3444 181.288C35.443 184.016 37.5135 186.126 39.9689 186.003Z" fill="#FF6300"/>
<rect x="2.24359" y="178.886" width="105.111" height="3.9098" fill="#FF6300"/>
<path fill-rule="evenodd" clip-rule="evenodd" d="M70.2398 155.211C73.5074 155.374 76.0879 152.548 76.0036 148.899C75.9194 145.25 73.2364 142.388 70.0111 142.506C66.7858 142.625 64.2052 145.451 64.2473 148.819C64.2893 152.186 66.9723 155.048 70.2398 155.211Z" fill="#2E344D"/>
<path fill-rule="evenodd" clip-rule="evenodd" d="M74.81 205.066C78.0747 205.093 80.6523 202.153 80.5681 198.504C80.4838 194.855 77.8038 192.107 74.5812 192.361C71.3578 192.609 68.7782 195.536 68.8203 198.903C68.8623 202.271 71.5444 205.032 74.81 205.066Z" fill="#2E344D"/>
<path fill-rule="evenodd" clip-rule="evenodd" d="M45.9497 238.681C49.9724 238.455 52.8793 234.572 52.4447 230.019C52.0101 225.466 48.4745 222.308 44.5453 222.955C40.6135 223.59 37.7007 227.446 38.0417 231.578C38.3827 235.711 41.9243 238.895 45.9497 238.681Z" fill="#2E344D"/>
</g>
<path d="M100.473 232.994L192.411 305.148" stroke="#3364ED" stroke-width="3.90779"/>
<path d="M191.568 309.897L188.906 305.801L251.433 262.14L251.572 267.88L191.568 309.897Z" fill="#3364ED"/>
<path fill-rule="evenodd" clip-rule="evenodd" d="M192.232 318.859C200.86 319.19 207.853 312.339 207.853 303.553C207.853 294.767 200.86 287.511 192.232 287.35C183.605 287.193 176.611 294.054 176.611 302.67C176.611 311.286 183.605 318.533 192.232 318.859Z" fill="white" stroke="#3364ED" stroke-width="2.93084"/>
<path fill-rule="evenodd" clip-rule="evenodd" d="M192.232 308.443C195.048 308.564 197.331 306.382 197.331 303.571C197.331 300.76 195.048 298.383 192.232 298.262C189.416 298.141 187.133 300.323 187.133 303.134C187.133 305.945 189.416 308.322 192.232 308.443Z" fill="#3364ED"/>
<path d="M195.213 304.477L190.121 301.569L197.932 287.885L203.023 290.793L195.213 304.477Z" fill="#3364ED"/>
<path opacity="0.7" fill-rule="evenodd" clip-rule="evenodd" d="M260.927 131.331C268.196 130.95 273.78 124.741 273.399 117.464C273.017 110.186 266.815 104.595 259.546 104.976C252.276 105.357 246.692 111.566 247.074 118.843C247.455 126.121 253.658 131.712 260.927 131.331Z" fill="white"/>
<path opacity="0.7" fill-rule="evenodd" clip-rule="evenodd" d="M338.648 126.979C345.917 126.598 351.501 120.39 351.12 113.112C350.738 105.834 344.536 100.243 337.267 100.624C329.997 101.005 324.414 107.214 324.795 114.491C325.176 121.769 331.379 127.36 338.648 126.979Z" fill="white"/>
<path opacity="0.7" fill-rule="evenodd" clip-rule="evenodd" d="M415.393 122.37C422.662 121.989 428.246 115.78 427.864 108.502C427.483 101.224 421.281 95.6336 414.011 96.0145C406.742 96.3955 401.158 102.604 401.54 109.882C401.921 117.16 408.123 122.75 415.393 122.37Z" fill="white"/>
<rect opacity="0.3" x="314.484" y="102.784" width="1.95266" height="28.346" fill="white"/>
<rect opacity="0.3" x="391.391" y="98.1201" width="1.95266" height="28.346" fill="white"/>
<path fill-rule="evenodd" clip-rule="evenodd" d="M280.953 117.109C281.006 115.597 282.204 114.376 283.714 114.294L301.51 113.332C303.223 113.239 304.647 114.636 304.587 116.35C304.534 117.862 303.336 119.083 301.826 119.165L284.03 120.127C282.317 120.22 280.893 118.823 280.953 117.109Z" fill="#F5F9FE"/>
<path fill-rule="evenodd" clip-rule="evenodd" d="M359.06 112.222C359.112 110.71 360.311 109.489 361.821 109.407L379.617 108.445C381.33 108.352 382.753 109.749 382.693 111.463C382.641 112.975 381.443 114.196 379.932 114.278L362.136 115.24C360.423 115.333 359 113.936 359.06 112.222Z" fill="#F5F9FE"/>
<path fill-rule="evenodd" clip-rule="evenodd" d="M434.237 107.335C434.29 105.823 435.488 104.602 436.998 104.52L454.794 103.557C456.507 103.465 457.931 104.861 457.871 106.576C457.818 108.087 456.62 109.309 455.11 109.39L437.314 110.353C435.601 110.446 434.177 109.049 434.237 107.335Z" fill="#F5F9FE"/>
<path d="M452.005 75.2297C450.185 75.4182 448.802 76.9519 448.802 78.7816V127.752C448.802 129.814 450.543 131.447 452.6 131.316L531.679 126.271C533.559 126.151 535.023 124.591 535.023 122.708V70.5916C535.023 68.474 533.19 66.8216 531.084 67.0398L452.005 75.2297Z" fill="#E0EBFE" stroke="#3364ED" stroke-width="1.28"/>
<mask id="mask5" mask-type="alpha" maskUnits="userSpaceOnUse" x="448" y="66" width="88" height="66">
<path d="M452.005 75.2297C450.185 75.4182 448.802 76.9519 448.802 78.7816V127.752C448.802 129.814 450.543 131.447 452.6 131.316L531.679 126.271C533.559 126.151 535.023 124.591 535.023 122.708V70.5916C535.023 68.474 533.19 66.8216 531.084 67.0398L452.005 75.2297Z" fill="white" stroke="white" stroke-width="1.28"/>
</mask>
<g mask="url(#mask5)">
<path fill-rule="evenodd" clip-rule="evenodd" d="M463.525 79.0606L530.299 72.145V119.705L463.525 124.652V79.0606Z" fill="white"/>
<rect x="433.821" y="53.4341" width="23.432" height="93.8352" fill="url(#paint5_linear)"/>
<path fill-rule="evenodd" clip-rule="evenodd" d="M482.109 92.9139L489.139 92.5918V113.224L482.109 113.547V92.9139Z" fill="#609AFF"/>
<path fill-rule="evenodd" clip-rule="evenodd" d="M495.165 83.3489L502.196 82.9993V112.401L495.165 112.751V83.3489Z" fill="#609AFF"/>
<path fill-rule="evenodd" clip-rule="evenodd" d="M508.222 96.1846L515.252 95.8882V111.659L508.222 111.956V96.1846Z" fill="#609AFF"/>
<path opacity="0.4" d="M475.041 117.926L522.282 115.048V115.986L474.074 118.923V81.7801L475.041 81.7212V117.926Z" fill="#3364ED" stroke="#3364ED" stroke-width="0.976947"/>
</g>
<path d="M115.991 222.047L116.968 222.039L116.96 221.09L116.011 221.07L115.991 222.047ZM115.991 222.047C116.968 222.039 116.968 222.039 116.968 222.039L116.968 222.041L116.968 222.046L116.968 222.07L116.969 222.161L116.972 222.519L116.983 223.878C116.993 225.048 117.006 226.721 117.022 228.729C117.053 232.745 117.091 238.104 117.121 243.475C117.152 248.845 117.174 254.228 117.173 258.293C117.172 260.324 117.166 262.03 117.152 263.24C117.144 263.844 117.135 264.331 117.123 264.676C117.118 264.846 117.111 264.992 117.103 265.103C117.099 265.157 117.093 265.218 117.085 265.276C117.081 265.303 117.074 265.348 117.062 265.399L117.062 265.4C117.058 265.419 117.021 265.584 116.907 265.747C116.791 265.913 116.654 266.001 116.587 266.039C116.512 266.082 116.446 266.107 116.405 266.121C116.325 266.149 116.255 266.162 116.218 266.168C116.137 266.182 116.054 266.188 115.989 266.192C115.851 266.201 115.672 266.204 115.467 266.204C115.051 266.204 114.463 266.19 113.732 266.166C112.268 266.117 110.198 266.022 107.727 265.895C102.785 265.641 96.2236 265.255 89.6612 264.837C83.0989 264.42 76.5319 263.97 71.5801 263.589C69.1052 263.399 67.0281 263.225 65.5553 263.08C64.8207 263.008 64.2259 262.942 63.8039 262.884C63.5958 262.855 63.4117 262.826 63.268 262.796C63.1993 262.781 63.1138 262.761 63.0304 262.733C62.9902 262.72 62.9237 262.696 62.8501 262.657L62.8482 262.656C62.8031 262.633 62.6115 262.532 62.4679 262.313C62.3734 262.169 62.3391 262.029 62.3328 262.004L62.3322 262.001C62.3198 261.952 62.3124 261.909 62.3082 261.882C62.2993 261.825 62.2932 261.766 62.2887 261.714C62.2793 261.608 62.2711 261.469 62.2637 261.309C62.2487 260.986 62.2348 260.531 62.2219 259.968C62.196 258.84 62.1735 257.253 62.1544 255.364C62.1164 251.584 62.0922 246.579 62.084 241.576C62.0758 236.573 62.0836 231.57 62.1092 227.793C62.1221 225.905 62.1394 224.321 62.1615 223.195C62.1726 222.633 62.1849 222.179 62.1988 221.857C62.2057 221.698 62.2134 221.56 62.2225 221.454C62.2269 221.403 62.2328 221.343 62.2417 221.286C62.2459 221.259 62.2535 221.214 62.2663 221.164C62.2665 221.163 62.2667 221.163 62.2669 221.161C62.2728 221.138 62.31 220.986 62.4169 220.832C62.5302 220.669 62.6639 220.582 62.7256 220.545C62.7969 220.503 62.86 220.477 62.8981 220.463C62.974 220.435 63.0408 220.421 63.0773 220.413C63.1556 220.398 63.2362 220.388 63.3013 220.382C63.4383 220.368 63.6169 220.358 63.8226 220.35C64.2391 220.334 64.8305 220.323 65.5648 220.317C67.0365 220.306 69.1173 220.313 71.5993 220.334C76.5649 220.375 83.1553 220.471 89.7337 220.58C96.3127 220.689 102.882 220.812 107.806 220.907C110.269 220.955 112.32 220.995 113.755 221.024C114.473 221.039 115.037 221.05 115.422 221.058L115.861 221.067L115.973 221.07L116.002 221.07L116.009 221.07L116.011 221.07C116.011 221.07 116.011 221.07 115.991 222.047Z" fill="white" stroke="#0056EC" stroke-width="1.95389"/>
<mask id="mask6" mask-type="alpha" maskUnits="userSpaceOnUse" x="61" y="219" width="58" height="49">
<path d="M115.991 222.047L116.968 222.039L116.96 221.09L116.011 221.07L115.991 222.047ZM115.991 222.047C116.968 222.039 116.968 222.039 116.968 222.039L116.968 222.041L116.968 222.046L116.968 222.07L116.969 222.161L116.972 222.519L116.983 223.878C116.993 225.048 117.006 226.721 117.022 228.729C117.053 232.745 117.091 238.104 117.121 243.475C117.152 248.845 117.174 254.228 117.173 258.293C117.172 260.324 117.166 262.03 117.152 263.24C117.144 263.844 117.135 264.331 117.123 264.676C117.118 264.846 117.111 264.992 117.103 265.103C117.099 265.157 117.093 265.218 117.085 265.276C117.081 265.303 117.074 265.348 117.062 265.399L117.062 265.4C117.058 265.419 117.021 265.584 116.907 265.747C116.791 265.913 116.654 266.001 116.587 266.039C116.512 266.082 116.446 266.107 116.405 266.121C116.325 266.149 116.255 266.162 116.218 266.168C116.137 266.182 116.054 266.188 115.989 266.192C115.851 266.201 115.672 266.204 115.467 266.204C115.051 266.204 114.463 266.19 113.732 266.166C112.268 266.117 110.198 266.022 107.727 265.895C102.785 265.641 96.2236 265.255 89.6612 264.837C83.0989 264.42 76.5319 263.97 71.5801 263.589C69.1052 263.399 67.0281 263.225 65.5553 263.08C64.8207 263.008 64.2259 262.942 63.8039 262.884C63.5958 262.855 63.4117 262.826 63.268 262.796C63.1993 262.781 63.1138 262.761 63.0304 262.733C62.9902 262.72 62.9237 262.696 62.8501 262.657L62.8482 262.656C62.8031 262.633 62.6115 262.532 62.4679 262.313C62.3734 262.169 62.3391 262.029 62.3328 262.004L62.3322 262.001C62.3198 261.952 62.3124 261.909 62.3082 261.882C62.2993 261.825 62.2932 261.766 62.2887 261.714C62.2793 261.608 62.2711 261.469 62.2637 261.309C62.2487 260.986 62.2348 260.531 62.2219 259.968C62.196 258.84 62.1735 257.253 62.1544 255.364C62.1164 251.584 62.0922 246.579 62.084 241.576C62.0758 236.573 62.0836 231.57 62.1092 227.793C62.1221 225.905 62.1394 224.321 62.1615 223.195C62.1726 222.633 62.1849 222.179 62.1988 221.857C62.2057 221.698 62.2134 221.56 62.2225 221.454C62.2269 221.403 62.2328 221.343 62.2417 221.286C62.2459 221.259 62.2535 221.214 62.2663 221.164C62.2665 221.163 62.2667 221.163 62.2669 221.161C62.2728 221.138 62.31 220.986 62.4169 220.832C62.5302 220.669 62.6639 220.582 62.7256 220.545C62.7969 220.503 62.86 220.477 62.8981 220.463C62.974 220.435 63.0408 220.421 63.0773 220.413C63.1556 220.398 63.2362 220.388 63.3013 220.382C63.4383 220.368 63.6169 220.358 63.8226 220.35C64.2391 220.334 64.8305 220.323 65.5648 220.317C67.0365 220.306 69.1173 220.313 71.5993 220.334C76.5649 220.375 83.1553 220.471 89.7337 220.58C96.3127 220.689 102.882 220.812 107.806 220.907C110.269 220.955 112.32 220.995 113.755 221.024C114.473 221.039 115.037 221.05 115.422 221.058L115.861 221.067L115.973 221.07L116.002 221.07L116.009 221.07L116.011 221.07C116.011 221.07 116.011 221.07 115.991 222.047Z" fill="white" stroke="white" stroke-width="1.95389"/>
</mask>
<g mask="url(#mask6)">
<path fill-rule="evenodd" clip-rule="evenodd" d="M50.1223 205.278H68.6726V279.564H50.1223V205.278Z" fill="url(#paint6_linear)"/>
</g>
<path fill-rule="evenodd" clip-rule="evenodd" d="M91.1739 228.3C83.3554 228.468 77.4595 235.004 77.4595 242.832C77.4595 250.659 83.3554 257.085 91.1739 257.515C98.9924 257.945 105.737 252.272 105.737 243.077C105.737 233.883 98.9924 228.132 91.1739 228.3ZM92.156 249.986V252.287L90.0176 252.2V250.069C88.5551 249.95 87.1363 249.5 86.3075 248.983L86.9623 246.398C87.8785 246.935 89.1666 247.44 90.5843 247.48C91.8284 247.515 92.6794 247.042 92.6794 246.139C92.6794 245.279 91.9813 244.722 90.367 244.126C88.0313 243.277 86.4382 242.137 86.4382 239.981C86.4382 238.023 87.7911 236.489 90.1261 236.016V233.883L92.2644 233.867V235.854C93.7269 235.92 94.7093 236.235 95.4289 236.599L94.7963 239.168C94.2285 238.915 93.2246 238.387 91.654 238.38C90.2352 238.374 89.777 239 89.777 239.628C89.777 240.368 90.541 240.848 92.3958 241.591C94.9928 242.58 96.0403 243.849 96.0403 245.902C96.0403 247.932 94.6649 249.618 92.156 249.986Z" fill="url(#paint7_linear)"/>
<path d="M235.495 220.917L224.886 233.329L235.495 244.376" stroke="#6A9FFB" stroke-width="2.93084"/>
<path fill-rule="evenodd" clip-rule="evenodd" d="M471.13 151.365L602.861 162.332L603.61 280.937L471.13 315.156V151.365Z" fill="url(#paint8_linear)" fill-opacity="0.7"/>
<path d="M481.661 239.489L493.597 225.525L481.661 213.098" stroke="#6A9FFB" stroke-width="2.93084"/>
<path fill-rule="evenodd" clip-rule="evenodd" d="M326.614 159.899L321.359 166.233L316.105 160.427L271.549 162.669C270.581 162.718 269.797 161.975 269.797 161.01V135.963C269.797 134.998 270.581 134.176 271.549 134.128L370.559 127.945C371.527 127.897 372.312 128.639 372.312 129.604V155.853C372.312 156.817 371.527 157.639 370.559 157.688L326.614 159.899Z" fill="#2E344D"/>
<path fill-rule="evenodd" clip-rule="evenodd" d="M280.45 150.767C279.45 150.818 278.377 150.483 277.583 149.756L278.624 148.373C279.171 148.832 279.883 149.131 280.492 149.1C281.172 149.065 281.492 148.778 281.492 148.346C281.492 147.881 281.069 147.751 280.409 147.492L279.429 147.11C278.624 146.815 277.871 146.151 277.871 144.983C277.871 143.631 279.027 142.491 280.657 142.408C281.544 142.363 282.482 142.672 283.153 143.341L282.235 144.599C281.729 144.224 281.255 144.032 280.657 144.063C280.089 144.091 279.738 144.347 279.738 144.78C279.738 145.223 280.223 145.372 280.904 145.618L281.863 145.969C282.813 146.321 283.38 146.963 283.38 148.098C283.38 149.439 282.307 150.673 280.45 150.767ZM287.166 150.425C285.484 150.511 284.185 149.388 284.185 147.354C284.185 145.354 285.546 144.052 286.97 143.979C288.661 143.893 289.487 145.138 289.487 146.825C289.487 147.16 289.445 147.508 289.404 147.651L285.959 147.826C286.124 148.662 286.681 148.979 287.424 148.942C287.847 148.92 288.239 148.77 288.661 148.489L289.27 149.615C288.661 150.101 287.857 150.39 287.166 150.425ZM285.928 146.574L287.929 146.472C287.929 145.855 287.671 145.414 287.001 145.448C286.495 145.474 286.052 145.832 285.928 146.574ZM293.252 150.116C291.601 150.2 290.333 149.075 290.333 147.042C290.333 144.998 291.777 143.735 293.417 143.651C294.129 143.615 294.686 143.846 295.129 144.224L294.273 145.5C294.005 145.276 293.778 145.19 293.52 145.203C292.716 145.244 292.21 145.919 292.21 146.946C292.21 147.963 292.736 148.585 293.458 148.548C293.83 148.529 294.18 148.327 294.479 148.063L295.181 149.293C294.614 149.852 293.871 150.084 293.252 150.116ZM297.966 149.876C296.687 149.941 296.14 149.006 296.14 147.471V143.664L297.976 143.571V147.139C297.976 147.994 298.193 148.22 298.657 148.197C299.07 148.176 299.328 147.99 299.637 147.52V143.486L301.473 143.393V149.546L299.978 149.622L299.844 148.785L299.802 148.787C299.318 149.418 298.771 149.835 297.966 149.876ZM302.949 149.471V143.318L304.444 143.241L304.568 144.306L304.609 144.304C305.043 143.46 305.693 143.027 306.281 142.997C306.631 142.979 306.827 143.023 306.992 143.09L306.683 144.76C306.477 144.717 306.301 144.683 306.043 144.696C305.61 144.718 305.084 145.036 304.774 145.863V149.378L302.949 149.471ZM307.735 149.227V143.074L309.561 142.981V149.134L307.735 149.227ZM308.653 142.173C308.034 142.204 307.601 141.816 307.601 141.242C307.601 140.658 308.034 140.225 308.653 140.194C309.262 140.163 309.695 140.552 309.695 141.136C309.695 141.709 309.262 142.142 308.653 142.173ZM313.357 149.093C311.882 149.168 311.284 148.225 311.284 146.765V144.397L310.489 144.437V143.01L311.387 142.888L311.593 141.256L313.12 141.178V142.8L314.502 142.73V144.233L313.12 144.303V146.65C313.12 147.331 313.429 147.586 313.863 147.564C314.048 147.554 314.255 147.479 314.399 147.428L314.688 148.798C314.378 148.911 313.955 149.062 313.357 149.093ZM316.369 151.156C315.988 151.176 315.75 151.145 315.503 151.081L315.833 149.605C315.936 149.621 316.091 149.667 316.225 149.66C316.782 149.632 317.071 149.315 317.205 148.875L317.287 148.557L315.038 142.702L316.885 142.608L317.669 145.121C317.844 145.674 317.968 146.241 318.123 146.839L318.174 146.836C318.288 146.246 318.422 145.666 318.556 145.076L319.237 142.489L320.98 142.4L318.969 148.667C318.391 150.275 317.762 151.085 316.369 151.156ZM324.23 148.388V139.747L326.056 139.654V141.731L325.973 142.827C326.396 142.395 326.974 141.944 327.768 141.903C329.047 141.838 329.594 142.773 329.594 144.308V148.115L327.758 148.208V144.64C327.758 143.796 327.541 143.559 327.077 143.582C326.664 143.603 326.417 143.81 326.056 144.186V148.295L324.23 148.388ZM333.565 148.064C332.07 148.14 330.687 147.021 330.687 144.988C330.687 142.944 332.07 141.684 333.565 141.608C335.051 141.533 336.433 142.652 336.433 144.696C336.433 146.729 335.051 147.989 333.565 148.064ZM333.565 146.507C334.246 146.472 334.556 145.808 334.556 144.791C334.556 143.764 334.246 143.131 333.565 143.165C332.874 143.201 332.565 143.865 332.565 144.893C332.565 145.909 332.874 146.542 333.565 146.507ZM339.26 147.775C338.001 147.839 337.588 146.994 337.588 145.708V139.068L339.414 138.975V145.69C339.414 146.09 339.6 146.2 339.744 146.193C339.806 146.19 339.848 146.187 339.951 146.161L340.167 147.566C339.971 147.663 339.662 147.754 339.26 147.775ZM343.664 147.55C341.983 147.636 340.683 146.513 340.683 144.479C340.683 142.479 342.045 141.177 343.468 141.104C345.16 141.018 345.985 142.263 345.985 143.95C345.985 144.285 345.944 144.634 345.903 144.776L342.457 144.952C342.622 145.787 343.179 146.104 343.922 146.067C344.345 146.045 344.737 145.895 345.16 145.614L345.769 146.74C345.16 147.226 344.355 147.515 343.664 147.55ZM342.426 143.699L344.428 143.597C344.428 142.98 344.17 142.539 343.499 142.573C342.994 142.599 342.55 142.957 342.426 143.699ZM348.915 147.283C348.152 147.322 347.244 147.022 346.656 146.533L347.471 145.291C348.007 145.696 348.492 145.888 348.956 145.864C349.441 145.84 349.647 145.645 349.647 145.343C349.647 144.975 349.08 144.831 348.482 144.613C347.78 144.356 346.955 143.901 346.955 142.884C346.955 141.716 347.863 140.881 349.224 140.811C350.153 140.764 350.813 141.12 351.329 141.494L350.504 142.682C350.091 142.4 349.678 142.205 349.286 142.225C348.874 142.246 348.667 142.408 348.667 142.7C348.667 143.067 349.204 143.181 349.812 143.377C350.545 143.632 351.36 144.034 351.36 145.147C351.36 146.283 350.514 147.202 348.915 147.283ZM353.495 143.092C352.856 143.125 352.402 142.629 352.402 141.958C352.402 141.288 352.856 140.746 353.495 140.713C354.124 140.681 354.589 141.176 354.589 141.847C354.589 142.517 354.124 143.06 353.495 143.092ZM353.495 147.05C352.856 147.083 352.402 146.576 352.402 145.905C352.402 145.246 352.856 144.693 353.495 144.66C354.124 144.628 354.589 145.135 354.589 145.794C354.589 146.465 354.124 147.018 353.495 147.05ZM360.654 142.241C361.025 142.222 361.438 141.996 361.737 141.429C361.583 140.107 361.098 139.753 360.623 139.777C360.138 139.802 359.726 140.18 359.726 141.11C359.726 141.975 360.138 142.267 360.654 142.241ZM358.158 145.85L359.117 144.655C359.375 144.934 359.849 145.17 360.293 145.147C361.077 145.107 361.696 144.492 361.768 142.725C361.397 143.263 360.747 143.588 360.303 143.611C359.014 143.676 358.055 142.925 358.055 141.195C358.055 139.486 359.21 138.411 360.582 138.341C362.036 138.267 363.45 139.352 363.45 142.272C363.45 145.192 361.985 146.618 360.417 146.698C359.385 146.75 358.643 146.334 358.158 145.85Z" fill="white"/>
<path opacity="0.7" fill-rule="evenodd" clip-rule="evenodd" d="M535.001 67.5623L564.968 74.8176V129.708L535.571 125.467L535.001 67.5623Z" fill="url(#paint9_linear)" fill-opacity="0.7"/>
<path opacity="0.7" fill-rule="evenodd" clip-rule="evenodd" d="M448.475 130.81L480.821 135.367L571.997 130.756L535.257 125.447L448.475 130.81Z" fill="url(#paint10_linear)" fill-opacity="0.7"/>
<path opacity="0.7" fill-rule="evenodd" clip-rule="evenodd" d="M117.506 218.672L148.873 221.234V264.819L117.506 267.568V218.672Z" fill="url(#paint11_linear)" fill-opacity="0.7"/>
<path d="M165.517 194.34C175.77 194.34 184.081 186.599 184.081 177.051C184.081 167.503 175.77 159.762 165.517 159.762C155.264 159.762 146.953 167.503 146.953 177.051C146.953 186.599 155.264 194.34 165.517 194.34Z" fill="#E0EBFE"/>
<defs>
<linearGradient id="paint0_linear" x1="806.86" y1="390.224" x2="807.649" y2="300.56" gradientUnits="userSpaceOnUse">
<stop stop-color="#3364ED" stop-opacity="0.317284"/>
<stop offset="1" stop-color="#3364ED" stop-opacity="0.01"/>
</linearGradient>
<linearGradient id="paint1_linear" x1="837.975" y1="454.657" x2="844.301" y2="5.01917" gradientUnits="userSpaceOnUse">
<stop stop-color="#3364ED"/>
<stop offset="1" stop-color="#C3E4FF"/>
</linearGradient>
<linearGradient id="paint2_linear" x1="607.945" y1="345.314" x2="610.651" y2="151.812" gradientUnits="userSpaceOnUse">
<stop stop-color="#3364ED"/>
<stop offset="1" stop-color="#C3E4FF"/>
</linearGradient>
<linearGradient id="paint3_linear" x1="273.252" y1="-6.35286" x2="274.376" y2="97.6763" gradientUnits="userSpaceOnUse">
<stop stop-color="#619BFF"/>
<stop offset="1" stop-color="#4D82FF"/>
</linearGradient>
<linearGradient id="paint4_linear" x1="205.64" y1="220.583" x2="312.254" y2="353.49" gradientUnits="userSpaceOnUse">
<stop stop-color="#619BFF"/>
<stop offset="1" stop-color="#4D82FF"/>
</linearGradient>
<linearGradient id="paint5_linear" x1="470.595" y1="130.737" x2="470.595" y2="67.0944" gradientUnits="userSpaceOnUse">
<stop stop-color="#3364ED"/>
<stop offset="1" stop-color="#C3E4FF"/>
</linearGradient>
<linearGradient id="paint6_linear" x1="79.2354" y1="266.476" x2="79.2354" y2="216.092" gradientUnits="userSpaceOnUse">
<stop stop-color="#3364ED"/>
<stop offset="1" stop-color="#C3E4FF"/>
</linearGradient>
<linearGradient id="paint7_linear" x1="64.8768" y1="243.613" x2="93.0867" y2="270.708" gradientUnits="userSpaceOnUse">
<stop stop-color="#619BFF"/>
<stop offset="1" stop-color="#4D82FF"/>
</linearGradient>
<linearGradient id="paint8_linear" x1="474.299" y1="298.523" x2="554.69" y2="293.385" gradientUnits="userSpaceOnUse">
<stop stop-color="#3364ED" stop-opacity="0.317284"/>
<stop offset="1" stop-color="#3364ED" stop-opacity="0.01"/>
</linearGradient>
<linearGradient id="paint9_linear" x1="535.001" y1="135.655" x2="564.968" y2="135.655" gradientUnits="userSpaceOnUse">
<stop stop-color="#3364ED" stop-opacity="0.317284"/>
<stop offset="1" stop-color="#3364ED" stop-opacity="0.01"/>
</linearGradient>
<linearGradient id="paint10_linear" x1="448.475" y1="136.317" x2="571.997" y2="136.317" gradientUnits="userSpaceOnUse">
<stop stop-color="#3364ED" stop-opacity="0.317284"/>
<stop offset="1" stop-color="#3364ED" stop-opacity="0.01"/>
</linearGradient>
<linearGradient id="paint11_linear" x1="117.506" y1="272.246" x2="148.873" y2="272.246" gradientUnits="userSpaceOnUse">
<stop stop-color="#3364ED" stop-opacity="0.317284"/>
<stop offset="1" stop-color="#3364ED" stop-opacity="0.01"/>
</linearGradient>
</defs>
</svg>
