<?xml version="1.0" encoding="utf-8"?>
<svg version="1.1" xmlns:xlink="http://www.w3.org/1999/xlink" width="41px" height="50px" xmlns="http://www.w3.org/2000/svg">
  <defs>
    <filter x="838px" y="3326px" width="41px" height="50px" filterUnits="userSpaceOnUse" id="filter26">
      <feOffset dx="1" dy="1" in="SourceAlpha" result="shadowOffsetInner" />
      <feGaussianBlur stdDeviation="2.5" in="shadowOffsetInner" result="shadowGaussian" />
      <feComposite in2="shadowGaussian" operator="atop" in="SourceAlpha" result="shadowComposite" />
      <feColorMatrix type="matrix" values="0 0 0 0 0  0 0 0 0 0  0 0 0 0 0  0 0 0 0.698039215686274 0  " in="shadowComposite" />
    </filter>
    <g id="widget27">
      <path d="M 857.5 3369.05791956538  C 851.5 3359.42025819408  842.5 3353.6376613713  842.5 3344  C 842.5 3338.98571428571  845.5 3330.5  857.5 3330.5  C 869.5 3330.5  872.5 3338.98571428571  872.5 3344  C 872.5 3353.6376613713  863.5 3359.42025819408  857.5 3369.05791956538  Z " fill-rule="nonzero" fill="#d9001b" stroke="none" />
      <path d="M 857.5 3370  C 851.3 3360  842 3354  842 3344  C 842 3338.8  845.1 3330  857.5 3330  C 869.9 3330  873 3338.8  873 3344  C 873 3354  863.7 3360  857.5 3370  Z M 857.5 3368.11583913076  C 863.3 3358.84051638816  872 3353.2753227426  872 3344  C 872 3339.17142857143  869.1 3331  857.5 3331  C 845.9 3331  843 3339.17142857143  843 3344  C 843 3353.2753227426  851.7 3358.84051638816  857.5 3368.11583913076  Z " fill-rule="nonzero" fill="#ffffff" stroke="none" />
    </g>
  </defs>
  <g transform="matrix(1 0 0 1 -838 -3326 )">
    <use xlink:href="#widget27" filter="url(#filter26)" />
    <use xlink:href="#widget27" />
  </g>
</svg>