<?xml version="1.0" encoding="utf-8"?>
<svg version="1.1" xmlns:xlink="http://www.w3.org/1999/xlink" width="25px" height="37px" xmlns="http://www.w3.org/2000/svg">
  <defs>
    <mask fill="white" id="clip29">
      <path d="M 25 12.95  C 25 14.6406422774558  24.7494575914984 16.2076836333841  24.3094290034123 17.6963056771833  C 23.9567640073774 18.8893756307903  23.4823850310229 20.0320739602815  22.91772424438 21.1476604714801  C 20.3321762445876 26.2558644425285  15.8537171770963 30.7956232223719  12.5 37  C 8.46677809074936 29.5385394678863  2.80686828457283 24.4845770232231  0.76890519378594 17.9541230528965  C 0.280397963025962 16.3887492740132  0 14.7385394678863  0 12.95  C 0 8.13999999999999  2.5 0  12.5 0  C 22.5 0  25 8.13999999999999  25 12.95  Z " fill-rule="evenodd" />
    </mask>
  </defs>
  <g transform="matrix(1 0 0 1 -1285 -903 )">
    <path d="M 25 12.95  C 25 14.6406422774558  24.7494575914984 16.2076836333841  24.3094290034123 17.6963056771833  C 23.9567640073774 18.8893756307903  23.4823850310229 20.0320739602815  22.91772424438 21.1476604714801  C 20.3321762445876 26.2558644425285  15.8537171770963 30.7956232223719  12.5 37  C 8.46677809074936 29.5385394678863  2.80686828457283 24.4845770232231  0.76890519378594 17.9541230528965  C 0.280397963025962 16.3887492740132  0 14.7385394678863  0 12.95  C 0 8.13999999999999  2.5 0  12.5 0  C 22.5 0  25 8.13999999999999  25 12.95  Z " fill-rule="nonzero" fill="#facd91" stroke="none" transform="matrix(1 0 0 1 1285 903 )" />
    <path d="M 25 12.95  C 25 14.6406422774558  24.7494575914984 16.2076836333841  24.3094290034123 17.6963056771833  C 23.9567640073774 18.8893756307903  23.4823850310229 20.0320739602815  22.91772424438 21.1476604714801  C 20.3321762445876 26.2558644425285  15.8537171770963 30.7956232223719  12.5 37  C 8.46677809074936 29.5385394678863  2.80686828457283 24.4845770232231  0.76890519378594 17.9541230528965  C 0.280397963025962 16.3887492740132  0 14.7385394678863  0 12.95  C 0 8.13999999999999  2.5 0  12.5 0  C 22.5 0  25 8.13999999999999  25 12.95  Z " stroke-width="2" stroke="#797979" fill="none" transform="matrix(1 0 0 1 1285 903 )" mask="url(#clip29)" />
  </g>
</svg>