<?xml version="1.0" encoding="utf-8"?>
<svg version="1.1" xmlns:xlink="http://www.w3.org/1999/xlink" width="26px" height="25px" xmlns="http://www.w3.org/2000/svg">
  <g transform="matrix(1 0 0 1 -142 -16 )">
    <path d="M 0.321614583333333 8.1232970027248  L 6 8.1232970027248  L 6 25  L 0.321614583333333 25  L 0.321614583333333 8.1232970027248  Z M 5.39973958333333 0.825953678474114  C 5.96397569444444 1.37658946412352  6.25173611111111 2.0719800181653  6.26302083333333 2.91212534059946  C 6.27430555555556 3.74091734786557  5.98936631944444 4.43346957311535  5.408203125 4.98978201634877  C 4.82703993055556 5.5460944595822  4.0625 5.82425068119891  3.11458333333333 5.82425068119891  L 3.08072916666667 5.82425068119891  C 2.15538194444444 5.82425068119891  1.41059027777778 5.5460944595822  0.846354166666667 4.98978201634877  C 0.282118055555556 4.43346957311535  0 3.74091734786557  0 2.91212534059946  C 0 2.0719800181653  0.290581597222222 1.37658946412352  0.871744791666667 0.825953678474114  C 1.45290798611111 0.275317892824703  2.21180555555556 0  3.1484375 0  C 4.08506944444444 0  4.83550347222222 0.275317892824703  5.39973958333333 0.825953678474114  Z M 24.2395833333333 9.66450953678474  C 25.4131944444444 10.953110808356  26 12.8405994550409  26 15.3269754768392  L 26 25  L 20.4309895833333 25  L 20.4309895833333 15.9741144414169  C 20.4309895833333 14.7820163487738  20.2024739583333 13.8482061762035  19.7454427083333 13.1726839237057  C 19.2884114583333 12.497161671208  18.5746527777778 12.1594005449591  17.6041666666667 12.1594005449591  C 16.8932291666667 12.1594005449591  16.2979600694444 12.3552452316076  15.818359375 12.7469346049046  C 15.3387586805556 13.1386239782016  14.98046875 13.6239782016349  14.7434895833333 14.2029972752044  C 14.6193576388889 14.5435967302452  14.5572916666667 15.0034059945504  14.5572916666667 15.5824250681199  L 14.5572916666667 25  L 8.98828125 25  C 9.01085069444444 20.4700272479564  9.02213541666667 16.797229791099  9.02213541666667 13.9816076294278  C 9.02213541666667 11.1659854677566  9.01649305555556 9.48569482288828  9.00520833333333 8.94073569482289  L 8.98828125 8.1232970027248  L 14.5572916666667 8.1232970027248  L 14.5572916666667 10.5756130790191  L 14.5234375 10.5756130790191  C 14.7491319444444 10.2123069936421  14.98046875 9.89441416893733  15.2174479166667 9.62193460490463  C 15.4544270833333 9.34945504087193  15.7732204861111 9.05426884650318  16.173828125 8.73637602179836  C 16.5744357638889 8.41848319709355  17.0653211805556 8.17154859218892  17.646484375 7.99557220708447  C 18.2276475694444 7.81959582198002  18.8736979166667 7.73160762942779  19.5846354166667 7.73160762942779  C 21.5143229166667 7.73160762942779  23.0659722222222 8.37590826521344  24.2395833333333 9.66450953678474  Z " fill-rule="nonzero" fill="#000000" stroke="none" transform="matrix(1 0 0 1 142 16 )" />
  </g>
</svg>