<?xml version="1.0" encoding="utf-8"?>
<svg version="1.1" xmlns:xlink="http://www.w3.org/1999/xlink" width="22px" height="40px" xmlns="http://www.w3.org/2000/svg">
  <g transform="matrix(1 0 0 1 -177 -3 )">
    <path d="M 16.1944444444444 0  C 18.6898148148148 0  20.625 0.0961538461538458  22 0.288461538461537  L 22 6.63461538461538  L 18.0023148148148 6.63461538461538  C 16.5424382716049 6.63461538461538  15.5578703703704 6.92307692307693  15.0486111111111 7.5  C 14.5393518518519 8.07692307692307  14.2847222222222 8.94230769230769  14.2847222222222 10.0961538461538  L 14.2847222222222 14.6394230769231  L 21.7453703703704 14.6394230769231  L 20.7523148148148 21.7548076923077  L 14 21.7548076923077  L 14 40  L 6.49305555555556 40  L 6.49305555555556 21.7548076923077  L 0 21.7548076923077  L 0 14.6394230769231  L 6.49305555555556 14.6394230769231  L 6.49305555555556 9.39903846153846  C 6.49305555555556 6.41826923076923  7.37577160493827 4.10657051282051  9.1412037037037 2.46394230769231  C 10.9066358024691 0.821314102564106  13.2577160493827 0  16.1944444444444 0  Z " fill-rule="nonzero" fill="#000000" stroke="none" transform="matrix(1 0 0 1 177 3 )" />
  </g>
</svg>