<?xml version="1.0" encoding="utf-8"?>
<svg version="1.1" xmlns:xlink="http://www.w3.org/1999/xlink" width="26px" height="20px" xmlns="http://www.w3.org/2000/svg">
  <g transform="matrix(1 0 0 1 -211 -21 )">
    <path d="M 22.9314720812183 3.15625  C 23.9543147208122 3.05208333333333  24.9771573604061 2.79166666666666  26 2.375  C 25.2631133671743 3.39583333333333  24.3722504230118 4.265625  23.3274111675127 4.984375  C 23.3384094754653 5.13020833333333  23.3439086294416 5.34895833333333  23.3439086294416 5.640625  C 23.3439086294416 6.99479166666666  23.1349407783418 8.34635416666666  22.7170050761421 9.6953125  C 22.2990693739425 11.0442708333333  21.6639170896785 12.3385416666667  20.8115482233503 13.578125  C 19.959179357022 14.8177083333333  18.9445854483926 15.9140625  17.7677664974619 16.8671875  C 16.5909475465313 17.8203125  15.172165820643 18.5807291666667  13.511421319797 19.1484375  C 11.8506768189509 19.7161458333333  10.0744500846024 20  8.18274111675127 20  C 5.20219966159052 20  2.4746192893401 19.2447916666667  0 17.734375  C 0.384940778341794 17.7760416666667  0.813874788494078 17.796875  1.28680203045685 17.796875  C 3.76142131979696 17.796875  5.9665820642978 17.078125  7.90228426395939 15.640625  C 6.74746192893401 15.6197916666667  5.71362098138748 15.2838541666667  4.8007614213198 14.6328125  C 3.88790186125212 13.9817708333333  3.26099830795262 13.1510416666667  2.92005076142132 12.140625  C 3.28299492385787 12.1927083333333  3.61844331641286 12.21875  3.92639593908629 12.21875  C 4.39932318104907 12.21875  4.86675126903553 12.1614583333333  5.32868020304569 12.046875  C 4.09686971235195 11.8072916666667  3.07677664974619 11.2265625  2.26840101522843 10.3046875  C 1.46002538071066 9.3828125  1.05583756345178 8.3125  1.05583756345178 7.09375  L 1.05583756345178 7.03125  C 1.80372250423012 7.42708333333333  2.60659898477157 7.640625  3.46446700507614 7.671875  C 2.73857868020305 7.21354166666667  2.16116751269036 6.61458333333333  1.73223350253807 5.875  C 1.30329949238579 5.13541666666666  1.08883248730964 4.33333333333333  1.08883248730964 3.46875  C 1.08883248730964 2.55208333333333  1.33079526226734 1.703125  1.81472081218274 0.921875000000001  C 3.14551607445008 2.47395833333333  4.76501692047377 3.71614583333333  6.67322335025381 4.6484375  C 8.58142978003384 5.58072916666667  10.6243654822335 6.09895833333333  12.8020304568528 6.203125  C 12.7140439932318 5.80729166666667  12.6700507614213 5.421875  12.6700507614213 5.046875  C 12.6700507614213 3.65104166666666  13.1897208121827 2.4609375  14.2290609137056 1.4765625  C 15.2684010152284 0.492187500000001  16.5249576988156 0  17.998730964467 0  C 19.5384940778342 0  20.8362944162437 0.531250000000001  21.8921319796954 1.59375  C 23.0909475465313 1.375  24.2182741116751 0.96875  25.2741116751269 0.375000000000001  C 24.8671742808799 1.57291666666666  24.0862944162437 2.5  22.9314720812183 3.15625  Z " fill-rule="nonzero" fill="#000000" stroke="none" transform="matrix(1 0 0 1 211 21 )" />
  </g>
</svg>