<?xml version="1.0" encoding="utf-8"?>
<svg version="1.1" xmlns:xlink="http://www.w3.org/1999/xlink" width="26px" height="25px" xmlns="http://www.w3.org/2000/svg">
  <g transform="matrix(1 0 0 1 -105 -18 )">
    <path d="M 6.474609375 1.71781187458306  C 8.46636284722222 0.572603958194351  10.6414930555556 0  13 0  C 15.3585069444444 0  17.5336371527778 0.572603958194351  19.525390625 1.71781187458306  C 21.5171440972222 2.86301979097176  23.0941840277778 4.41683344451857  24.2565104166667 6.37925283522348  C 25.4188368055556 8.3416722259284  26 10.4847676228597  26 12.8085390260173  C 26 15.5992884144986  25.1733940972222 18.1092950856126  23.5201822916667 20.3385590393596  C 21.8669704861111 22.5678229931065  19.7313368055556 24.1105181231932  17.11328125 24.9666444296197  C 16.80859375 25.0222370469202  16.5828993055556 24.9833222148099  16.4361979166667 24.8498999332889  C 16.2894965277778 24.7164776517678  16.2161458333333 24.5496997998666  16.2161458333333 24.3495663775851  C 16.2161458333333 24.3162108072048  16.2189670138889 23.8909272848566  16.224609375 23.0737158105404  C 16.2302517361111 22.2565043362242  16.2330729166667 21.5087836335335  16.2330729166667 20.8305537024683  C 16.2330729166667 19.7520569268401  15.9396701388889 18.9626417611741  15.3528645833333 18.4623082054703  C 15.99609375 18.3955970647098  16.5744357638889 18.295530353569  17.087890625 18.162108072048  C 17.6013454861111 18.028685790527  18.1317274305556 17.8118745830554  18.6790364583333 17.5116744496331  C 19.2263454861111 17.2114743162108  19.6833767361111 16.841783411163  20.0501302083333 16.4026017344897  C 20.4168836805556 15.9634200578163  20.7159288194444 15.3796975761619  20.947265625 14.6514342895263  C 21.1786024305556 13.9231710028908  21.2942708333333 13.0865021125195  21.2942708333333 12.1414276184123  C 21.2942708333333 10.8183233266622  20.8485243055556 9.67311541027352  19.95703125 8.70580386924616  C 20.3745659722222 7.69401823437847  20.3294270833333 6.55992884144985  19.8216145833333 5.30353569046031  C 19.5056423611111 5.20346897931955  19.0486111111111 5.26462085835001  18.4505208333333 5.4869913275517  C 17.8524305555556 5.70936179675339  17.3333333333333 5.95396931287525  16.8932291666667 6.22081387591728  L 16.25 6.62108072048032  C 15.2005208333333 6.33199911051812  14.1171875 6.18745830553702  13 6.18745830553702  C 11.8828125 6.18745830553702  10.7994791666667 6.33199911051812  9.75 6.62108072048032  C 9.56944444444444 6.49877696241939  9.32964409722222 6.34867689570825  9.03059895833333 6.1707805203469  C 8.73155381944444 5.99288414498554  8.26041666666667 5.77885256837892  7.6171875 5.52868579052702  C 6.97395833333333 5.27851901267512  6.49435763888889 5.20346897931955  6.17838541666667 5.30353569046031  C 5.67057291666667 6.55992884144985  5.62543402777778 7.69401823437847  6.04296875 8.70580386924616  C 5.15147569444444 9.67311541027352  4.70572916666667 10.8183233266622  4.70572916666667 12.1414276184123  C 4.70572916666667 13.0865021125195  4.82139756944444 13.9203913720258  5.052734375 14.6430953969313  C 5.28407118055556 15.3657994218368  5.58029513888889 15.9495219034912  5.94140625 16.3942628418946  C 6.30251736111111 16.839003780298  6.75672743055556 17.2114743162108  7.30403645833333 17.5116744496331  C 7.85134548611111 17.8118745830554  8.38172743055556 18.028685790527  8.89518229166667 18.162108072048  C 9.40863715277778 18.295530353569  9.98697916666667 18.3955970647098  10.6302083333333 18.4623082054703  C 10.1901041666667 18.8625750500334  9.91362847222222 19.4351790082277  9.80078125 20.1801200800534  C 9.56380208333333 20.2913053146542  9.30989583333333 20.3746942406048  9.0390625 20.4302868579053  C 8.76822916666667 20.4858794752057  8.44661458333333 20.5136757838559  8.07421875 20.5136757838559  C 7.70182291666667 20.5136757838559  7.33224826388889 20.39415165666  6.96549479166667 20.1551034022682  C 6.59874131944444 19.9160551478764  6.28559027777778 19.5686012897487  6.02604166666667 19.1127418278853  C 5.81163194444444 18.7569490771625  5.53797743055556 18.4678674672004  5.205078125 18.2454969979987  C 4.87217881944444 18.023126528797  4.59288194444444 17.889704247276  4.3671875 17.8452301534356  L 4.02864583333333 17.7951967978652  C 3.79166666666667 17.7951967978652  3.62803819444444 17.8202134756504  3.53776041666667 17.8702468312208  C 3.44748263888889 17.9202801867912  3.41927083333333 17.9842116966867  3.453125 18.0620413609073  C 3.48697916666667 18.1398710251279  3.53776041666667 18.2177006893485  3.60546875 18.295530353569  C 3.67317708333333 18.3733600177896  3.74652777777778 18.4400711585501  3.82552083333333 18.4956637758506  L 3.94401041666667 18.5790527018012  C 4.19227430555556 18.690237936402  4.43771701388889 18.9014898821437  4.68033854166667 19.212808539026  C 4.92296006944444 19.5241271959084  5.10069444444444 19.8076495441405  5.21354166666667 20.0633755837225  L 5.3828125 20.4469646430954  C 5.52951388888889 20.8694685345786  5.77777777777778 21.2113631309762  6.12760416666667 21.4726484322882  C 6.47743055555556 21.7339337336002  6.85546875 21.9007115855014  7.26171875 21.972981987992  C 7.66796875 22.0452523904825  8.06011284722222 22.0841672225928  8.43815104166667 22.0897264843229  C 8.81618923611111 22.0952857460529  9.12934027777778 22.0758283299978  9.37760416666667 22.0313542361574  L 9.76692708333333 21.9646430953969  C 9.76692708333333 22.3871469868801  9.76974826388889 22.8791416499889  9.775390625 23.4406270847231  C 9.78103298611111 24.0021125194574  9.78385416666667 24.3050922837447  9.78385416666667 24.3495663775851  C 9.78385416666667 24.5496997998666  9.71050347222222 24.7164776517678  9.56380208333333 24.8498999332889  C 9.41710069444444 24.9833222148099  9.19140625 25.0222370469202  8.88671875 24.9666444296197  C 6.26866319444444 24.1105181231932  4.13302951388889 22.5678229931065  2.47981770833333 20.3385590393596  C 0.826605902777778 18.1092950856126  0 15.5992884144986  0 12.8085390260173  C 0 10.4847676228597  0.581163194444444 8.3416722259284  1.74348958333333 6.37925283522348  C 2.90581597222222 4.41683344451857  4.48285590277778 2.86301979097176  6.474609375 1.71781187458306  Z M 4.70572916666667 18.4289526350901  C 4.80729166666667 18.4956637758506  4.88064236111111 18.4845452523905  4.92578125 18.3955970647098  C 4.95963541666667 18.3177674004892  4.92013888888889 18.2510562597287  4.80729166666667 18.1954636424283  C 4.69444444444444 18.162108072048  4.62109375 18.1732265955081  4.58723958333333 18.2288192128085  C 4.55338541666667 18.3066488770291  4.59288194444444 18.3733600177896  4.70572916666667 18.4289526350901  Z M 5.1796875 18.9126084056037  C 5.29253472222222 19.0237936402046  5.3828125 19.0404714253947  5.45052083333333 18.9626417611741  C 5.52951388888889 18.9070491438737  5.51822916666667 18.818100956193  5.41666666666667 18.6957971981321  C 5.30381944444444 18.5957304869913  5.21354166666667 18.5790527018012  5.14583333333333 18.6457638425617  C 5.06684027777778 18.7013564598621  5.078125 18.7903046475428  5.1796875 18.9126084056037  Z M 5.67057291666667 19.5963975983989  C 5.77213541666667 19.74093840338  5.86805555555556 19.7798532354903  5.95833333333333 19.7131420947298  C 6.05989583333333 19.6353124305092  6.05989583333333 19.5296864576384  5.95833333333333 19.3962641761174  C 5.86805555555556 19.2517233711363  5.77213541666667 19.2183678007561  5.67057291666667 19.2961974649767  C 5.56901041666667 19.3517900822771  5.56901041666667 19.4518567934178  5.67057291666667 19.5963975983989  Z M 6.33072916666667 20.3635757171448  C 6.46614583333333 20.4969979986658  6.57899305555556 20.5136757838559  6.66927083333333 20.4136090727151  C 6.75954861111111 20.3246608850345  6.73697916666667 20.2190349121637  6.6015625 20.0967311541027  C 6.46614583333333 19.9633088725817  6.35329861111111 19.9466310873916  6.26302083333333 20.0466977985324  C 6.16145833333333 20.135645986213  6.18402777777778 20.2412719590838  6.33072916666667 20.3635757171448  Z M 7.3125 20.9306204136091  C 7.48177083333333 20.9973315543696  7.58897569444444 20.9639759839893  7.63411458333333 20.8305537024683  C 7.66796875 20.7082499444074  7.59461805555556 20.6193017567267  7.4140625 20.5637091394263  C 7.24479166666667 20.5192350455859  7.13758680555556 20.5581498776962  7.09244791666667 20.6804536357572  C 7.04730902777778 20.8027573938181  7.12065972222222 20.8861463197687  7.3125 20.9306204136091  Z M 8.4296875 21.0973982655103  C 8.61024305555556 21.0973982655103  8.70052083333333 21.0362463864799  8.70052083333333 20.9139426284189  C 8.70052083333333 20.7694018234378  8.60460069444444 20.7082499444074  8.41276041666667 20.7304869913276  C 8.23220486111111 20.7304869913276  8.14192708333333 20.791638870358  8.14192708333333 20.9139426284189  C 8.14192708333333 21.0584834334  8.23784722222222 21.1196353124305  8.4296875 21.0973982655103  Z M 9.4453125 20.9806537691795  C 9.62586805555556 20.9361796753391  9.70486111111111 20.8583500111185  9.68229166666667 20.7471647765177  C 9.65972222222222 20.6248610184567  9.55815972222222 20.5748276628864  9.37760416666667 20.5970647098065  C 9.19704861111111 20.6304202801868  9.11805555555556 20.7138092061374  9.140625 20.8472314876584  C 9.16319444444444 20.9806537691795  9.26475694444444 21.0251278630198  9.4453125 20.9806537691795  Z " fill-rule="nonzero" fill="#000000" stroke="none" transform="matrix(1 0 0 1 105 18 )" />
  </g>
</svg>