<?xml version="1.0" encoding="utf-8"?>
<svg version="1.1" xmlns:xlink="http://www.w3.org/1999/xlink" width="25px" height="25px" xmlns="http://www.w3.org/2000/svg">
  <g transform="matrix(1 0 0 1 -248 -16 )">
    <path d="M 12.5 23.1770833333333  C 13.9322916666667 23.1770833333333  15.3211805555556 22.8949652777778  16.6666666666667 22.3307291666667  C 16.2109375 19.7157118055556  15.4513888888889 17.0138888888889  14.3880208333333 14.2252604166667  L 14.35546875 14.2252604166667  L 14.3229166666667 14.2415364583333  C 14.1493055555556 14.306640625  13.916015625 14.3961588541667  13.623046875 14.5100911458333  C 13.330078125 14.6240234375  12.7821180555556 14.8898654513889  11.9791666666667 15.3076171875  C 11.1762152777778 15.7253689236111  10.4329427083333 16.1702473958333  9.74934895833333 16.6422526041667  C 9.06575520833333 17.1142578125  8.35503472222222 17.7354600694444  7.6171875 18.505859375  C 6.87934027777778 19.2762586805556  6.32052951388889 20.0792100694444  5.94075520833333 20.9147135416667  L 5.69661458333333 20.7356770833333  C 7.69314236111111 22.36328125  9.9609375 23.1770833333333  12.5 23.1770833333333  Z M 13.4440104166667 12.5244140625  C 13.5416666666667 12.4972873263889  13.6121961805556 12.4728732638889  13.6555989583333 12.451171875  C 13.427734375 11.9194878472222  13.1401909722222 11.3172743055556  12.79296875 10.64453125  C 9.41840277777778 11.6536458333333  5.76714409722222 12.158203125  1.83919270833333 12.158203125  C 1.82834201388889 12.2341579861111  1.82291666666667 12.3480902777778  1.82291666666667 12.5  C 1.82291666666667 13.8454861111111  2.06163194444444 15.1285807291667  2.5390625 16.3492838541667  C 3.01649305555556 17.5699869791667  3.68923611111111 18.6631944444444  4.55729166666667 19.62890625  C 5.09982638888889 18.6631944444444  5.76985677083333 17.7598741319444  6.5673828125 16.9189453125  C 7.36490885416667 16.0780164930556  8.13802083333333 15.4025607638889  8.88671875 14.892578125  C 9.63541666666667 14.3825954861111  10.3434244791667 13.9431423611111  11.0107421875 13.57421875  C 11.6780598958333 13.2052951388889  12.2178819444444 12.9448784722222  12.6302083333333 12.79296875  L 13.232421875 12.5813802083333  C 13.2758246527778 12.5705295138889  13.3463541666667 12.5515407986111  13.4440104166667 12.5244140625  Z M 2.05078125 10.302734375  C 5.32769097222222 10.302734375  8.61545138888889 9.86870659722222  11.9140625 9.00065104166667  C 10.6119791666667 6.689453125  9.28819444444445 4.638671875  7.94270833333333 2.84830729166667  C 6.4453125 3.55360243055556  5.17578125 4.56271701388889  4.13411458333333 5.87565104166667  C 3.09244791666667 7.18858506944444  2.39800347222222 8.66427951388889  2.05078125 10.302734375  Z M 21.484375 18.2698567708333  C 22.2873263888889 17.0274522569444  22.8081597222222 15.6684027777778  23.046875 14.1927083333333  C 20.7682291666667 13.5416666666667  18.5492621527778 13.3843315972222  16.3899739583333 13.720703125  C 17.333984375 16.3140190972222  18.0284288194444 18.8585069444444  18.4733072916667 21.3541666666667  C 19.677734375 20.5403645833333  20.6814236111111 19.5122612847222  21.484375 18.2698567708333  Z M 9.912109375 2.1484375  C 9.92296006944445 2.13758680555556  9.93381076388889 2.13216145833333  9.94466145833333 2.13216145833333  C 9.93381076388889 2.13216145833333  9.92296006944445 2.13758680555556  9.912109375 2.1484375  Z M 19.3440755208333 4.77701822916667  L 19.5475260416667 4.4921875  C 17.5401475694444 2.71267361111111  15.1909722222222 1.82291666666667  12.5 1.82291666666667  C 11.6753472222222 1.82291666666667  10.8344184027778 1.92599826388889  9.97721354166667 2.13216145833333  C 11.3986545138889 3.97677951388889  12.7332899305556 6.04926215277778  13.9811197916667 8.349609375  C 14.7298177083333 8.06749131944444  15.4351128472222 7.7392578125  16.0970052083333 7.36490885416667  C 16.7588975694444 6.99055989583333  17.2824435763889 6.65690104166667  17.6676432291667 6.36393229166667  C 18.0528428819444 6.07096354166667  18.408203125 5.76171875  18.7337239583333 5.43619791666667  C 19.0592447916667 5.11067708333333  19.2626953125 4.89095052083333  19.3440755208333 4.77701822916667  Z M 23.0143229166667 12.353515625  L 23.1770833333333 12.3860677083333  C 23.14453125 9.86870659722222  22.3361545138889 7.64431423611111  20.751953125 5.712890625  L 20.7356770833333 5.72916666666667  C 20.6380208333333 5.859375  20.5349392361111 5.99229600694444  20.4264322916667 6.1279296875  C 20.3179253472222 6.26356336805556  20.0819227430556 6.50499131944444  19.7184244791667 6.85221354166667  C 19.3549262152778 7.19943576388889  18.9697265625 7.52766927083333  18.5628255208333 7.8369140625  C 18.1559244791667 8.14615885416667  17.6133897569444 8.49880642361111  16.9352213541667 8.89485677083333  C 16.2570529513889 9.29090711805556  15.5436197916667 9.64084201388889  14.794921875 9.94466145833333  C 15.0661892361111 10.5197482638889  15.3049045138889 11.03515625  15.5110677083333 11.4908854166667  C 15.5327690972222 11.5451388888889  15.5680338541667 11.6373697916667  15.6168619791667 11.767578125  C 15.6656901041667 11.8977864583333  15.7063802083333 11.9900173611111  15.7389322916667 12.0442708333333  C 16.1295572916667 11.9900173611111  16.5337456597222 11.9520399305556  16.9514973958333 11.9303385416667  C 17.3692491319444 11.9086371527778  17.7680121527778 11.8977864583333  18.1477864583333 11.8977864583333  C 18.5275607638889 11.8977864583333  18.9019097222222 11.9059244791667  19.2708333333333 11.9222005208333  C 19.6397569444444 11.9384765625  19.9869791666667 11.9601779513889  20.3125 11.9873046875  C 20.6380208333333 12.0144314236111  20.9445529513889 12.0442708333333  21.2320963541667 12.0768229166667  C 21.5196397569444 12.109375  21.7800564236111 12.1446397569444  22.0133463541667 12.1826171875  C 22.2466362847222 12.2205946180556  22.4446614583333 12.2531467013889  22.607421875 12.2802734375  C 22.7701822916667 12.3074001736111  22.9058159722222 12.3318142361111  23.0143229166667 12.353515625  Z M 23.3235677083333 6.2255859375  C 24.4411892361111 8.14073350694444  25 10.2322048611111  25 12.5  C 25 14.7677951388889  24.4411892361111 16.8592664930556  23.3235677083333 18.7744140625  C 22.2059461805556 20.6895616319444  20.6895616319444 22.2059461805556  18.7744140625 23.3235677083333  C 16.8592664930556 24.4411892361111  14.7677951388889 25  12.5 25  C 10.2322048611111 25  8.14073350694444 24.4411892361111  6.2255859375 23.3235677083333  C 4.31043836805556 22.2059461805556  2.79405381944444 20.6895616319444  1.67643229166667 18.7744140625  C 0.558810763888889 16.8592664930556  0 14.7677951388889  0 12.5  C 0 10.2322048611111  0.558810763888889 8.14073350694444  1.67643229166667 6.2255859375  C 2.79405381944444 4.31043836805556  4.31043836805556 2.79405381944444  6.2255859375 1.67643229166667  C 8.14073350694444 0.558810763888887  10.2322048611111 0  12.5 0  C 14.7677951388889 0  16.8592664930556 0.558810763888887  18.7744140625 1.67643229166667  C 20.6895616319444 2.79405381944444  22.2059461805556 4.31043836805556  23.3235677083333 6.2255859375  Z " fill-rule="nonzero" fill="#000000" stroke="none" transform="matrix(1 0 0 1 248 16 )" />
  </g>
</svg>