<?xml version="1.0" encoding="utf-8"?>
<svg version="1.1" xmlns:xlink="http://www.w3.org/1999/xlink" width="32px" height="29px" xmlns="http://www.w3.org/2000/svg">
  <defs>
    <mask fill="white" id="clip24">
      <path d="M 32 10.15  C 32 14.3342711106361  28.8023210961785 17.5525767190762  24.8676447521402 20.919913113516  C 21.9847887852903 23.3870908349594  18.7062986057833 25.9342711106361  16 29  C 9.60000000000001 21.75  0 17.4  0 10.15  C 0 6.37999999999999  3.20000000000002 0  16 0  C 28.8 0  32 6.37999999999999  32 10.15  Z " fill-rule="evenodd" />
    </mask>
  </defs>
  <g transform="matrix(1 0 0 1 -363 -349 )">
    <path d="M 32 10.15  C 32 14.3342711106361  28.8023210961785 17.5525767190762  24.8676447521402 20.919913113516  C 21.9847887852903 23.3870908349594  18.7062986057833 25.9342711106361  16 29  C 9.60000000000001 21.75  0 17.4  0 10.15  C 0 6.37999999999999  3.20000000000002 0  16 0  C 28.8 0  32 6.37999999999999  32 10.15  Z " fill-rule="nonzero" fill="#d9001b" stroke="none" transform="matrix(1 0 0 1 363 349 )" />
    <path d="M 32 10.15  C 32 14.3342711106361  28.8023210961785 17.5525767190762  24.8676447521402 20.919913113516  C 21.9847887852903 23.3870908349594  18.7062986057833 25.9342711106361  16 29  C 9.60000000000001 21.75  0 17.4  0 10.15  C 0 6.37999999999999  3.20000000000002 0  16 0  C 28.8 0  32 6.37999999999999  32 10.15  Z " stroke-width="2" stroke="#797979" fill="none" transform="matrix(1 0 0 1 363 349 )" mask="url(#clip24)" />
  </g>
</svg>